<?xml version="1.0" encoding="utf-8"?>
<!-- Generator: Adobe Illustrator 23.0.2, SVG Export Plug-In . SVG Version: 6.00 Build 0)  -->
<svg version="1.1" id="Camada_1" xmlns="http://www.w3.org/2000/svg" xmlns:xlink="http://www.w3.org/1999/xlink" x="0px" y="0px"
	 viewBox="0 0 681.7 1004.7" style="enable-background:new 0 0 681.7 1004.7;" xml:space="preserve">
<style type="text/css">
	.st0{fill:#C06378;}
	.st1{opacity:0.7;enable-background:new    ;}
	.st2{fill:#FFFFFF;}
	.st3{fill:#FFC095;}
	.st4{fill:#D67820;}
	.st5{opacity:5.000000e-02;enable-background:new    ;}
	.st6{fill:#0E0D15;}
	.st7{fill:#252036;}
	.st8{opacity:3.000000e-02;enable-background:new    ;}
	.st9{opacity:0.1;enable-background:new    ;}
	.st10{fill:#8C5B79;}
	.st11{fill:#C6866B;}
	.st12{fill:#FDBE92;}
	.st13{fill:#D94B25;}
	.st14{fill:none;}
	.st15{fill:#F3F0DD;}
	.st16{opacity:0.1;}
	.st17{fill:#EB5E30;}
	.st18{fill:none;stroke:url(#SVGID_1_);stroke-linecap:round;stroke-miterlimit:10;}
	.st19{fill:none;stroke:url(#SVGID_2_);stroke-linecap:round;stroke-miterlimit:10;}
	.st20{opacity:0.1;fill:#FFFFFF;enable-background:new    ;}
	.st21{opacity:0.3;fill:#EDC8D2;enable-background:new    ;}
	.st22{opacity:0.5;fill:#F9BBCC;}
</style>
<title>women&amp;apos;s day</title>
<path class="st0" d="M601.6,485.4c100.5,60.1,0,149.6,0,149.6c-6.2,1.2-12.5,3-16.8,7.3c-5.8,5.8-6.2,14.4-6.3,22.3l-1.4,91
	c-0.1,7-0.3,14.2-3.6,20.4c-5,9.3-16,14.4-23,22.5c-12,13.8-10.7,33.6-6.4,50.8c4.3,17.2,11.1,34.6,8.1,52.1
	c-2.5,14.6,16.1,34.5-14.6,57.5c-30.7,22.9-455.2,36.1-490.3,4.2s-16.5-44.7-14.9-56.9c1.8-13.9,14.6-24.8,17.6-38.6
	c3.6-16-6.6-31.6-10.2-47.6c-4.7-21.4,2.6-43.3,9.8-64.1c2.8-8,5.7-16.2,11.6-22.6c7.2-7.8,18.4-12.4,23.3-21.5
	c6.9-12.6-0.8-28.4,4.2-41.8C94,655.5,112,649,128.2,645c28-7,56.5-11.9,85.3-14.8c8.6-0.9,17.6-1.7,24.8-6.1
	c5.8-3.6,9.8-9.1,13.3-14.6c16.3-25.8,30-58.3,61.3-65.9c21.2-5.1,43.7,3.7,65.4,0.7c39.6-5.4,56.1-42.6,95.9-64.3
	c39.8-21.7,99,9.7,105.3,0C585.8,470.4,601.6,485.4,601.6,485.4z"/>
<path class="st1" d="M601.6,485.4c100.5,61.8,0,149.6,0,149.6c-6.2,1.2-12.5,3-16.8,7.3c-5.8,5.8-6.2,14.4-6.3,22.3l-1.4,91
	c-0.1,7-0.3,14.2-3.6,20.4c-5,9.3-16,14.4-23,22.5c-12,13.8-10.7,33.6-6.4,50.8c4.3,17.2,11.1,34.6,8.1,52.1
	c-2.5,14.6,24.9,57.9-52.5,69.3s-418.5,20.9-452.5-7.6c-34-28.5-16.5-44.7-14.9-56.9c1.8-13.9,14.6-24.8,17.6-38.6
	c3.6-16-6.6-31.6-10.2-47.6c-4.7-21.4,2.6-43.3,9.8-64.1c2.8-8,5.7-16.2,11.6-22.6c7.2-7.8,18.4-12.4,23.3-21.5
	c6.9-12.6-0.8-28.4,4.2-41.8C94,655.5,112,649,128.2,645c28-7,56.5-11.9,85.3-14.8c8.6-0.9,17.6-1.7,24.8-6.1
	c5.8-3.6,9.8-9.1,13.3-14.6c16.3-25.8,30-58.3,61.3-65.9c21.2-5.1,43.7,3.7,65.4,0.7c39.6-5.4,60.6-41.5,95.9-64.3s99,9.7,105.3,0
	C585.8,470.4,601.6,485.4,601.6,485.4z"/>
<path class="st2" d="M563.1,414.7c-3.1,0-3.1,4.1,0,4.1S566.2,414.7,563.1,414.7z"/>
<path class="st2" d="M445.7,527.5c-3.1,0-3.1,4.1,0,4.1S448.8,527.5,445.7,527.5z"/>
<path class="st2" d="M2.3,720.4c-3.1,0-3.1,4.1,0,4.1S5.4,720.4,2.3,720.4z"/>
<path class="st2" d="M320,483.3c-3.1,0-3.1,4.1,0,4.1C323.1,487.4,323.1,483.3,320,483.3z"/>
<path class="st2" d="M661.8,524.2h-0.4c-0.9,0-1.6-0.6-1.6-1.4v-0.3h-0.9v0.3c0,0.8-0.7,1.4-1.6,1.4h-0.4v0.8h0.4
	c0.9,0,1.6,0.6,1.6,1.4v0.3h0.8v-0.3c0-0.8,0.7-1.4,1.6-1.4h0.4V524.2z"/>
<path class="st2" d="M561,448.1h-0.4c-0.9,0-1.6-0.6-1.6-1.4v-0.3h-0.9v0.3c0,0.8-0.7,1.4-1.6,1.4h-0.4v0.8h0.4
	c0.9,0,1.6,0.6,1.6,1.4v0.3h0.9v-0.3c0-0.8,0.7-1.4,1.6-1.4h0.4V448.1z"/>
<path class="st2" d="M46.5,675.3h-0.4c-0.9,0-1.6-0.6-1.6-1.4v-0.3h-0.9v0.3c0,0.8-0.7,1.4-1.6,1.4h-0.4v0.8H42
	c0.9,0,1.6,0.6,1.6,1.4v0.3h0.9v-0.3c0-0.8,0.7-1.4,1.6-1.4h0.4V675.3z"/>
<path class="st2" d="M333.1,549.2h-0.4c-0.9,0-1.6-0.6-1.6-1.4v-0.3h-0.9v0.3c0,0.8-0.7,1.4-1.6,1.4h-0.4v0.8h0.4
	c0.9,0,1.6,0.6,1.6,1.4v0.3h0.9v-0.3c0-0.8,0.7-1.4,1.6-1.4h0.4V549.2z"/>
<path class="st2" d="M685,534.9l-0.3-0.2c-0.7-0.5-0.8-1.3-0.2-1.9l0.2-0.2L684,532l-0.2,0.2c-0.6,0.6-1.6,0.7-2.3,0.2l-0.3-0.2
	l-0.6,0.6l0.3,0.2c0.7,0.5,0.8,1.3,0.2,1.9l-0.2,0.2l0.7,0.5l0.2-0.2c0.6-0.6,1.6-0.7,2.3-0.2l0.3,0.2L685,534.9z"/>
<path class="st2" d="M445.4,486l-0.3-0.2c-0.7-0.5-0.8-1.3-0.2-1.9l0.2-0.2l-0.7-0.5l-0.2,0.2c-0.6,0.6-1.6,0.7-2.3,0.2l-0.3-0.2
	l-0.6,0.6l0.3,0.2c0.7,0.5,0.8,1.3,0.2,1.9l-0.2,0.2l0.7,0.5l0.2-0.2c0.6-0.6,1.6-0.7,2.3-0.2l0.3,0.2L445.4,486z"/>
<path class="st2" d="M606.3,771.4l-0.3-0.2c-0.7-0.5-0.8-1.3-0.2-1.9l0.2-0.2l-0.7-0.5l-0.2,0.2c-0.6,0.6-1.6,0.7-2.3,0.2l-0.3-0.2
	l-0.6,0.6l0.3,0.2c0.7,0.5,0.8,1.3,0.2,1.9l-0.2,0.2l0.7,0.5l0.2-0.2c0.6-0.6,1.6-0.7,2.3-0.2l0.3,0.2L606.3,771.4z"/>
<polygon class="st2" points="613.1,415.9 611.7,414.7 613.1,413.6 612.4,413 611,414.2 609.6,413 609,413.6 610.4,414.7 609,415.9 
	609.6,416.4 611,415.3 612.4,416.4 "/>
<path class="st2" d="M663.2,422.6c-0.4,0-0.7,0.3-0.6,0.6c0,0.3,0.3,0.5,0.6,0.5c0.4,0,0.7-0.3,0.6-0.6
	C663.8,422.9,663.5,422.7,663.2,422.6z"/>
<path class="st2" d="M601.1,468c-0.4,0-0.7,0.3-0.6,0.6c0,0.3,0.3,0.5,0.6,0.5c0.4,0,0.7-0.3,0.6-0.6
	C601.7,468.2,601.4,468,601.1,468z"/>
<path class="st2" d="M520.3,457.5c-0.4,0-0.7,0.3-0.6,0.6c0,0.3,0.3,0.5,0.6,0.5c0.4,0,0.7-0.3,0.6-0.6
	C520.9,457.7,520.6,457.5,520.3,457.5z"/>
<path class="st2" d="M378.4,466.7h-1c-0.4,0-0.7,0.3-0.6,0.6c0,0.3,0.3,0.5,0.6,0.5h1c0.4,0,0.7-0.3,0.6-0.6
	C379,467,378.7,466.8,378.4,466.7z"/>
<path class="st2" d="M360.8,541.2c-0.4,0-0.7,0.3-0.6,0.6c0,0.3,0.3,0.5,0.6,0.5c0.4,0,0.7-0.3,0.6-0.6
	C361.4,541.4,361.1,541.2,360.8,541.2z"/>
<path class="st2" d="M504.7,568.2c-0.4,0-0.7,0.3-0.6,0.6c0,0.3,0.3,0.5,0.6,0.5c0.4,0,0.7-0.3,0.6-0.6
	C505.3,568.5,505.1,568.2,504.7,568.2z"/>
<path class="st2" d="M516.1,517.6c-0.4,0-0.7,0.3-0.6,0.6c0,0.3,0.3,0.5,0.6,0.5c0.4,0,0.7-0.3,0.6-0.6
	C516.7,517.9,516.5,517.7,516.1,517.6z"/>
<path class="st2" d="M612.5,528.1c-0.4,0-0.7,0.3-0.6,0.6c0,0.3,0.3,0.5,0.6,0.5c0.4,0,0.7-0.3,0.6-0.6
	C613,528.4,612.8,528.1,612.5,528.1z"/>
<path class="st2" d="M603.1,703.3c-0.4,0-0.7,0.3-0.6,0.6c0,0.3,0.3,0.5,0.6,0.5c0.4,0,0.7-0.3,0.6-0.6
	C603.7,703.6,603.5,703.4,603.1,703.3z"/>
<g>
	<path class="st3" d="M137.5,770.1c-0.3,1.8-0.3,3.6,0.1,5.4c1.3,4.8,7,6.9,12,7.7c7,1.2,14.5,1.3,20.8-1.9c2.5-1.3,4.8-2.9,7-4.7
		l8.9-6.8c1.5-1,2.8-2.3,3.7-3.8c0.6-1.3,0.9-2.7,1-4.1c1-15-10.4-27.9-25.4-28.9c-0.4,0-0.8,0-1.1,0c-1-0.1-2,0.1-2.9,0.4
		c-1,0.5-2,1.3-2.7,2.1c-4.8,4.7-11.1,5.5-14.2,11.7C141,754.5,138.6,762.2,137.5,770.1z"/>
	<path class="st4" d="M172.6,593.6c-5.7,3.3-10.2,8.2-14.2,13.3c-3,4-5.9,8.2-6.7,13.1c-1.3,7.1,1.5,15.6-3.3,20.9
		c-2.2,2.4-5.5,3.6-7.5,6.2c-1.5,1.8-2.1,4.1-2.7,6.4c-1.1,4.3-2.3,8.6-2,13c0.4,6,3.5,11.6,4.1,17.7c0.7,7.1-2,14.2-4.7,20.8
		l-5.4,13.2c4.9-1.7,10.3-1,15.4-0.7c18.3,1.1,37-3.4,54.7,1.3c2.1,0.6,4.2,1.2,6.3,1.7c11.3,2.5,22.9-1,33.9-4.5
		c1.6-0.5,3.5-1.5,3.2-3.1c-0.1-0.6-0.4-1.2-0.9-1.7c-8.3-10.7-15.1-23.7-13.3-37.2c1.6-11.7,9.5-22.6,7.4-34.2
		c-1.2-6.7-5.5-12.3-8.8-18.2c-2-3.7-3.6-7.6-6-11.1c-2.3-3.5-5.4-6.6-8.5-9.6c-3-3-6.2-6.2-9.9-8.4
		C195.4,587.5,181,588.8,172.6,593.6z"/>
	<path class="st3" d="M178.8,689.9c0,1.8-0.3,3.6-1.1,5.2c-1,1.9-2.9,3.1-4.7,4.2c-8.7,5.3-17.5,10.5-26.3,15.6
		c5.2,13.3,10.5,26.9,19.7,38c17.4,20.9,46.9,29.1,73.8,25.2c4-0.6,8.3-1.5,11.2-4.4c2.4-2.3,3.5-5.5,4.3-8.7
		c2.8-10.6,3.1-21.7,0.9-32.4c-1.6-7.6-4.7-15.4-11.3-19.5c-2.5-1.4-5.1-2.5-7.9-3.3l-22.3-7.3c-1.1-0.4-2.3-0.8-2.8-1.8
		c-0.3-0.8-0.4-1.7-0.2-2.5l1.7-18c0.4-3.8,0.6-8-1.6-11c-1.9-2.5-5.1-3.7-8.1-4.5c-4.6-1.3-19.9-5.9-23.5-1.5
		c-1.8,2.3-0.8,10.5-0.9,13.4L178.8,689.9z"/>
	<path class="st3" d="M241.8,709.8c8.6,2.1,18,5.4,22,13.3c2.4,4.7,2.4,10.2,2.3,15.5l-0.8,80.8l-21.8,0.9c2.6-14.2,4.2-28.6,4.7-43
		c0.4-6,0.2-12.1-0.5-18.1c-1.7-13.1-7.5-25.1-14.4-36.2c-1.6-2.5-10-11.9-8.7-14.9C226.3,704.6,238.5,709,241.8,709.8z"/>
	<path class="st5" d="M258.8,751.2c1.5,3,2.2,6.3,2.8,9.6c0.7,3.5,1.4,7,1.3,10.6c-0.2,2.5-0.6,4.9-1.2,7.3l-2.4,10.5
		c-1,4.2-2,8.6-4.6,12c-0.2,0.4-0.6,0.7-1,0.8c-0.4,0.1-0.8,0-1.1-0.1c-2.6-0.8-4.5-3.2-5.4-5.8c-0.9-2.6-0.9-5.4-0.9-8.1
		c0.1-11.6,1-23.3-0.1-34.9c-0.3-3.3-3.1-11.5,2.5-11.1C252.7,742.1,257.2,747.9,258.8,751.2z"/>
	<path class="st6" d="M260.4,896c0,0.4,0,0.8-0.1,1.1l0,0l0,0c0,1-0.1,1.9-0.1,2.9l0,0c-0.9,22.2-0.7,50.2-7.6,71.7H147.3
		c-0.3-1.1-0.6-2.1-0.9-3.2c-4.4-16.7-8.9-33.8-7.4-51c0.1-2.3,0.5-4.5,1-6.8l0,0c0-0.1,0.1-0.3,0.1-0.4c0.3-1.2,0.7-2.3,1.3-3.4
		c0.2-0.3,0.4-0.6,0.6-0.9c0.1-0.2,0.3-0.3,0.4-0.5c0.4-0.5,0.9-0.8,1.5-1.1c2.8-1.3,10.1,0.4,14.2,1.1c0.5,0.1,1,0.2,1.5,0.2
		l11.4,1l2.9,0.3l22.4,2l3,0.3c7,0.6,14.1,1.1,21.2,0.6C234.7,909.1,246.1,895.7,260.4,896L260.4,896z"/>
	<path class="st5" d="M146.9,803.7c0.7,2.2,0.6,4.5,0.8,6.7c0.6,7.2,4,14,5.2,21.2c1.8,11.3-2,22.6-5.5,33.5s-6.7,22-6.3,33.3
		c0.3,7.1,2.1,14.5,7,19.6c6.9,7.2,17.9,8.2,27.9,8.8l36,2.1c7,0.4,14.2,0.8,21.1-0.3c7-1.1,13.9-3.9,18.7-9c2.8-3.1,5-6.8,6.4-10.8
		c1.4-3.6,2.1-7.4,2.2-11.2c0-4.6-1.1-9-2-13.5c-4-19.4-4.2-39.3-4.3-59c-0.1-9.1-0.2-18.3,1.8-27.1c1-4.6,2.6-9.1,3.7-13.6
		c3.5-15.2,0.6-33-11.3-43.1c-1-0.9-2.4-1.7-3.6-1.2c-0.9,0.4-1.4,1.4-1.9,2.3c-4.5,8.6-12.5,14.7-22,16.8c-5,1.1-10.2,1-15.3,0.6
		c-6.7-0.5-13.4-1.5-19.5-4.2s-11.6-7.2-14.4-13.3c-6.8,5-6,15.4-9.8,23c-2.5,4.9-6.9,8.3-11.5,11.1c-3.6,2.1-11,3.4-13.4,6.9
		C131.7,790.5,144.9,797.6,146.9,803.7z"/>
	<path class="st7" d="M146.9,801.7c0.7,2.2,0.6,4.5,0.8,6.7c0.6,7.2,4,14,5.2,21.2c1.8,11.3-2,22.6-5.5,33.5
		c-3.5,10.9-6.7,22-6.3,33.3c0.3,7.1,2.1,14.5,7,19.6c7,7.2,18,8.2,27.9,8.8l36,2.1c7,0.4,14.2,0.8,21.1-0.3c7-1.1,13.9-3.9,18.7-9
		c2.8-3.1,5-6.8,6.4-10.8c1.4-3.6,2.1-7.4,2.2-11.2c0-4.6-1.1-9-2-13.5c-4-19.4-4.2-39.3-4.3-59c-0.1-9.1-0.2-18.3,1.8-27.1
		c1-4.6,2.6-9.1,3.7-13.6c3.5-15.2,0.6-33-11.3-43.1c-1-0.9-2.4-1.7-3.6-1.2c-0.9,0.4-1.4,1.4-1.9,2.3c-4.5,8.6-12.5,14.7-22,16.9
		c-5,1.1-10.2,1-15.3,0.6c-6.7-0.5-13.4-1.5-19.5-4.2s-11.6-7.2-14.4-13.3c-6.8,5-6,15.4-9.8,23c-2.5,4.9-6.9,8.3-11.5,11.1
		c-3.6,2.1-11,3.4-13.4,6.9C131.7,788.5,144.9,795.6,146.9,801.7z"/>
	<path class="st5" d="M235.6,821.5c0-2.1,1-4.1,2.1-5.9c1.4-2.5,3-5,4.6-7.4c1.2-1.9,2.8-3.6,4.6-4.9c1.9-1.2,4.5-1.6,6.5-0.5
		c0.4,0.3,0.9,0.6,1.5,0.6c0.8,0,1.3-0.8,2-1.1c1.3-0.6,2.7,0.3,3.6,1.4c0.9,1.1,1.6,2.4,2.9,3c0.5,0.2,1,0.3,1.4,0.5
		c1.6,0.7,2.5,2.5,3.2,4.1c0.6,1.1,0.9,2.3,1,3.5c0,2.1-1.6,3.9-3.1,5.4l-3.8,4c-1,1.1-2.1,2.1-3.4,2.8c-1.3,0.8-2.8,0.9-4.2,0.4
		c-0.3-0.2-0.7-0.3-1.1-0.3c-0.3,0.1-0.6,0.3-0.7,0.6c-0.8,1-1.6,2.1-2.4,3.2c-0.6,1.2-1.5,2.2-2.6,3c-1.2,0.6-2.9,0.4-3.5-0.8
		c-0.1-0.2-0.2-0.5-0.4-0.6c-0.5-0.4-1.1,0.2-1.7,0.5c-0.9,0.4-2-0.4-2.4-1.4c-0.2-1-0.2-2,0.2-3c-0.7-0.6-1.7-0.2-2.6-0.2
		c-1.9,0.1-1.5-1.1-1.4-2.2C236,824.5,235.7,823.1,235.6,821.5z"/>
	<path class="st5" d="M180.4,664.1c-1.3,1.6-1.2,6.4-1,10c0.4,0.4,0.9,0.8,1.3,1.2c6.9,5.7,15.5,9,24.5,9.2c1.8,0.1,3.6-0.1,5.3-0.8
		c1.2-0.6,2.3-1.5,3.2-2.5v-0.1c0.4-3.8,0.6-8-1.6-11c-1.9-2.5-5.1-3.7-8.1-4.5C199.3,664.4,184,659.8,180.4,664.1z"/>
	<path class="st8" d="M153.5,763.6c-0.4,3.7-2.1,7.2-3.7,10.6l-9.3,19.6c-1.5-2.5-3-5.3-2.7-8.2c0.3-1.4,0.7-2.8,1.4-4.1l8.2-17.3
		c0.6-1.3,2.7-8.6,4.1-8.7C153.6,755.4,153.6,762.4,153.5,763.6z"/>
	<path class="st5" d="M178.5,625.7c-4.8,7.7-5.7,17.5-3.4,26.3c1.7,6.6,5.1,13.4,2.8,19.9c-1.7,4.8-6.6,9.6-4.2,14.2
		c0.5,1,1.4,1.9,1.7,2.9c0.5,1.9-0.7,3.7-1.5,5.5c-4.4,9.1,0.9,19.6,3.4,29.5c1.9,7.3,2.3,14.8,2.7,22.3l-4.7-12.1
		c-2,10.2-6.2,19.8-12.4,28.1c3.5,0,6.9,0.6,10.3,1.6c-5.4-0.7-10.4,3.2-11,8.6c-0.6,4.8,2.4,9.3,7.1,10.7
		c-4.9,1.1-9.9-2.2-12.2-6.6c-2.3-4.4-2.5-9.6-2.2-14.6l-4,0.3c4-9.5,5.6-19.8,4.9-30c-0.3-4.5-1.8-9.9-6.2-11.2l-1.3,12l-5.3-10.7
		c-0.3-0.9-1-1.7-1.8-2.3c-0.6-0.2-1.3-0.4-2-0.5c-2.1-0.6-2.9-3.4-2.2-5.4c0.6-2.1,2.3-3.6,3.9-5.1c5.4-5,10.7-10.4,13.6-17.1
		c2.7-6.3,3.1-13.3,3.4-20.1c0.3-8,0.6-16,0.8-24c0.1-6.3,0.2-12.7,1.6-18.9c2.4-10.4,8.7-20.1,18-25.5c9.3-5.3,21.5-5.8,30.6-0.3
		c5.5,3.3,9.6,8.5,13.6,13.5l11.5,14.5c2.4,3,4.8,6.1,5.9,9.7c2,6.7-0.8,13.9-4.2,20.1s-7.6,12.2-8.4,19.2c-1,8.1,2.6,15.9,6.1,23.2
		c4.5,9.3,9,18.7,15.7,26.6c3.4,4,7.5,7.9,8.5,13c-1.5,1.2-3.4,1.6-5.3,1.2c2.7,10.8,4.9,21.8,6.5,32.8
		c-9.7-6.4-19.2-13.2-28.3-20.5c-0.8,3.7-3.4,6.7-6.9,8c-0.3-3.1,0.8-6.1,0.9-9.2c0.2-3.1-1-6.7-4-7.6c-1.7-0.5-3.7-0.1-5.2-1.1
		c-1.1-0.8-1.5-2.1-1.8-3.4L207,719c-4-0.2-8,0.8-11.5,2.8c5-2.8,8.6-7.4,10.3-12.8l-13.7-0.2c3.6-3.4,7.1-7,10.5-10.6
		c4.9-5.3,9.7-10.9,13.3-17.2c10.1-17.7,10.2-40.6,0.4-58.4c-1.6-2.9-3.6-5.8-6.3-7.8C200.1,607.9,183.9,617,178.5,625.7z"/>
	<path class="st5" d="M153.1,881.7l8.6,11.5c3.4,4.6,6.9,9.3,11.3,13.2c9.1,8,21.3,11.7,31.1,19c6.1,4.6,11.1,10.4,14.6,17.2
		c1.7,3.3,2.7,8.1-0.3,10.3c-2.7,1.9-6.4,0.2-9.2-1.5l-15.3-9.3c-4.5-2.7-9-5.5-12.4-9.4c-2.7-3.1-4.5-6.8-6.8-10.2
		c-3.4-5.2-7.7-9.9-12.6-13.7c-3-2.4-6.3-4.5-8.8-7.3c-4.1-4.6-5.8-10.8-7-16.8c-0.4-2-3.4-14.7-1.1-14.8
		C146.4,869.6,151.9,880,153.1,881.7z"/>
	<path class="st9" d="M146.4,801.9c0,0,34.1,16.3,72.6,2h5.4c0,0,16.3,8.9,28.7-1.5l0.9,30.4l-101.2-3.2L146.4,801.9z"/>
	<path class="st10" d="M336,583.7c-1-0.6-2.2-1.1-3.3-0.9c-2.7,0.6-3.5,5.1-6.3,5c-1.3-0.1-2.3-1.3-3.5-1.9s-3.2,0.2-2.8,1.4
		c-2.3,2.1-5.7-3.8-8.3-2.1c-0.6,0.4-0.9,1.1-1.5,1.4c-1,0.7-2.3,0.3-3.4-0.1c-1.1-0.5-2.2-1-3.4-0.8c-1.1,0.2-1.9,1.9-0.9,2.6
		l-8.8,0c-0.5,1.2-0.4,2.6,0.2,3.8l-6.4,0.2c0,1.2,0.3,2.3,0.9,3.3c-3.6-0.5-7.2,0.4-10,2.7l2.7,2.1c-2.8,0.1-5.5,0.8-8,1.9l1.4,2.4
		c-3.2,0-5.9,2.4-6.3,5.6l2.5,0.9c-3,0.8-5.5,2.9-6.8,5.7l1.9,0.9c-1.4,3.2-4,5.8-7.3,7.1c3,0.8,5.1,3.5,5.2,6.6
		c-2.1-1.3-5,0.5-5.7,2.9s0.3,4.9,1.4,7.1c0.8-1.6,1-3.4,0.5-5.1c2.3,1.2,3.2,4.1,1.9,6.4c-0.1,0.3-0.3,0.5-0.5,0.8
		c-0.6,0.5-1.1,1.1-1.6,1.7c-0.8,1.6,0.6,3.3,1.8,4.5c-2,1-4.1,2.1-4.9,4.2c-0.6,1.6-0.2,3.3,0.1,4.9c0.3,1.6,0.6,3.4,0,4.9
		s-2.7,2.5-4,1.6c-0.3,1.9,1,3.7,3,4c1.2,0.2,2.4-0.3,3.2-1.2c0.8-1,2.2-2.6,2.9-1.6c-3.2,2.4-3.1,8.1,0.2,10.3
		c-1.1-0.6-2.4,0.4-2.9,1.5c-1,1.8-1.1,4.2,0.3,5.8c1.3,1.6,4.2,1.6,5.2-0.1c-1.1,2.3,2.1,4.5,4.6,4s4.5-2.4,6.9-3
		c2.4-0.6,5.8,1,5.2,3.5c-1-0.5-2.1-0.7-3.2-0.6c-1.1,0.1-2,1-2,2.2c1.8,1.5,3.8,3.2,6.2,3.1c2.4,0,4.6-2.8,3.3-4.7
		c0.7-1.2,2.7-0.3,3.1,1.1s0.1,2.8,0.7,4.1c0.9,1.6,2.9,2.2,4.5,1.3c0.3-0.2,0.6-0.4,0.9-0.7c0.6,0.7,1.8,0.5,2.7,0.2
		c5.4-1.8,11.5-4.3,13-9.8c0.5-1.7,0.5-3.6,1.6-5c0.8-1,1.9-1.6,3.2-1.9c5.4-1.7,11.3,0.2,16.5,2.5c5.2,2.3,10.3,5.3,15.9,5.9
		c3.7,0.4,7.6-0.2,11,1.2c0.9,0.5,1.8,0.8,2.7,0.9c1,0,2-0.7,1.9-1.7c-0.1-0.6-0.6-1.1-0.8-1.6c-0.6-1.3-0.1-2.9,1.2-3.5
		c0,0,0.1,0,0.1,0c-0.2,1.6,0.5,3.2,1.7,4.2c1.3,0.9,3.1,0.8,4.3-0.4c1-1.2,0.5-3.4-1-3.9c2.9-1.7,4-5.4,2.4-8.3
		c3.8-2.2,4.7-8.2,1.7-11.4c3.5-1.8,5.4-5.7,4.5-9.5c1.6-0.6,3.2-1.3,4.2-2.6s1.2-3.5-0.1-4.6c1.6-4.2,2.5-8.6,2.7-13.1
		c0-1.3-0.4-3-1.7-3c1.1-1.8,2.2-4.2,1-6c-0.5-0.7-1.2-1.2-1.6-1.9c-0.9-1.8,0.6-4,0.1-5.9c-0.5-1.7-2.5-2.5-4-3.4
		c-2.3-1.4-4-3.6-6.1-5.2s-5.2-2.6-7.4-1.2c-0.6-4.5-3.1-8.5-7-10.9c-4-2.4-5.3-5.9-10.7-6.5c-1.7-0.2-3.9,0.4-5.5-0.1
		C339.5,586.7,337.8,584.7,336,583.7z"/>
	<path class="st5" d="M327.9,635.8c-1.7,1.7-0.3,5-1.9,6.8c-0.8,0.9-2.1,1.1-2.8,2.1c-0.8,1.3,0,3.1-0.5,4.5c-0.7,1.7-3,2.3-3.9,4
		c-1,2.1,0.6,5.3-1.4,6.5c-0.7,0.4-1.8,0.4-2.3,1.1c-0.5,0.7,0,1.7,0,2.5c0,1.6-1.7,2.6-2.8,3.7s-1.2,3.7,0.4,3.8
		c-0.8,1.3-2.1,2.4-3.5,3c1.5,0.9,1.1,3.2,0.1,4.6s-2.7,2.2-3.4,3.8c-0.4,0.8-0.5,1.7-0.9,2.5c-1.2,2.8-5.1,3.6-7.8,2.3
		s-4.4-4.1-5.3-7c-1.9-6.4-0.2-13.4-1.8-19.8c-0.9-3.7-2.9-7.3-2.7-11.2c0.1-3.1,1.6-5.9,3.1-8.6c3.7-6.7,7.8-13.1,12.3-19.3
		c4.3-5.9,9.5-12,16.6-13.5c4.2-0.9,8.6-0.1,12.8,1c12.2,3.2,24.1,9,32.9,18.1c2.7,2.7,4.9,5.8,6.3,9.4c1.3,3.6,1.5,7.7-0.1,11.1
		c-0.9,2-2.5,4-1.9,6.1c0.3,0.6,0.5,1.3,0.7,2c0.6,3.2-4.7,4.7-4.7,7.9c0,0.9,0.4,1.7,0.3,2.6c-0.2,1.8-2.4,2.5-3.4,4
		c-1.4,2.1-0.2,5.6-2.2,7.2c-1,0.8-2.6,0.9-2.9,2.1c-0.2,0.8,0.2,1.6,0.2,2.4c-0.1,1.4-1.6,2.3-2.4,3.4s-0.2,3.5,1.1,2.9l-3.6,2.6
		l1,2c-0.8,1.7-3.3,1.8-4.6,0.5s-1.5-3.4-0.9-5.1c0.7-1.7,1.7-3.3,2.9-4.6c2.3-2.9,4.4-6,6.3-9.2c1.6-2.6,3.1-5.6,2.6-8.6
		c-0.3-2.5-1.9-4.9-1.1-7.3l2.6-0.9l-4.5-5.2l2.2-0.5c-0.7-0.6-1.3-1.5-1.6-2.4c-0.3-1,0.3-1.9,1.2-2.2c1.3-3.9-6.3-7.1-4.3-10.8h-2
		c0-2-0.8-3.9-2.2-5.3c-1.6-1.5-3.6-2.3-5.8-2.4c-2.6-0.2-9.5,0.3-11.6,2c-1.3,1-0.7,2.2-1.5,3.3C330.6,634.6,329,634.7,327.9,635.8
		z"/>
	<path class="st11" d="M368.8,742c-0.4,2.8-1.4,5.5-2.8,8c-1.7,2.4-4,4.3-6.6,5.7c-1.7,1-3.6,1.8-5.4,2.6l-13,5.6
		c-4,2.2-8.7,2.9-13.2,1.9l-24.1-3.4c-2.9-0.4-5.8-0.8-8.7-1.4c-1.8-0.3-3.7-0.7-5.4-1.2c-3.8-0.9-7.4-2.3-10.9-4.2
		c-7.5-4.3-10.5-12.8-9.7-21.5c0.7-8.2,4.1-14.3,10.1-20l1.7-1.6l0.2-0.1l4-3.8l5.9-5.5c2.7-2.4,5.1-5,7.3-7.8
		c4.8-6.6,6.5-17,13-22.3c5.5-4.5,17.9,2,23,5.4c0.8,0.5,1.5,1.2,2,2c0.4,0.9,0.5,2,0.3,3c-0.6,6.2-2.3,12.3-5.2,17.8
		c-0.6,1.1-1.2,2.3-1,3.5c0.1,0.4,0.2,0.8,0.4,1.1c0.7,0.9,1.6,1.6,2.6,2.1c1.4,0.7,2.9,1.4,4.3,2c5.3,2.1,11,3.5,16.3,5.7
		c6.8,2.9,13.4,7.8,15.2,14.9C370.1,734.3,369.6,738.2,368.8,742z"/>
	<path class="st7" d="M337.6,709.9c1,3.7,6.1,21.2,9.2,22.1c1.2,0.3,6.3,10.4,12.5,23.7c12.4,26.4,29.5,65.2,29.5,65.2l-72.3-1.7
		l-31.4-0.8l4.5-58.5l0.9-11.6l8.2-2.8l3.2-1.1l-0.5-18.3c0,0-7-17.9-20.5-13.5l4-3.8c6.6-0.1,13.9,4.2,20.9,17.3
		c0,0,40.5,54.4,36.6,4c0,0-6.9-21.7-13.8-25.2l2.1,1.1L337.6,709.9z"/>
	<path class="st5" d="M333,695.2c1-3.2,1.6-6.5,1.9-9.8c0.2-1,0.1-2-0.3-3c-0.5-0.8-1.2-1.5-2-2c-5-3.4-17.5-9.9-23-5.4
		c-0.6,0.5-1.1,1-1.6,1.6C313.7,685.7,322.6,692.3,333,695.2z"/>
	<path class="st11" d="M304.9,663.4c3.4,15.3,17,27.5,32.4,30.4c3.4,0.7,7.6,0.6,9.6-2.2c1.3-1.8,1.4-4.3,2.4-6.3
		c0.8-1.8,2.4-3.2,3.7-4.6c1.8-2,3.3-4.2,4.7-6.6c4.5-7.8,7.4-16.8,6.6-25.7c-0.5-4-1.3-7.9-2.5-11.8c-1.3-4.6-2.8-9.6-6.6-12.4
		c-8.5-6.2-22.6-4.1-31.4-0.1c-9.2,4.2-15.8,13-18.3,22.7C303.9,652.3,303.8,657.9,304.9,663.4z"/>
	<path class="st10" d="M327.9,634.8c-1.7,1.7-0.3,5-1.9,6.8c-0.8,0.9-2.1,1.1-2.8,2.1c-0.8,1.3,0,3.1-0.5,4.5c-0.7,1.7-3,2.3-3.9,4
		c-1,2.1,0.6,5.3-1.4,6.5c-0.7,0.4-1.8,0.4-2.3,1.1c-0.5,0.7,0,1.7,0,2.5c0,1.6-1.7,2.6-2.8,3.7s-1.2,3.7,0.4,3.8
		c-0.8,1.3-2.1,2.4-3.5,3c1.5,0.9,1.1,3.2,0.1,4.6s-2.6,2.3-3.4,3.9c-0.4,0.8-0.5,1.7-0.9,2.5c-1.2,2.8-5.1,3.6-7.8,2.3
		s-4.4-4.1-5.3-7c-1.9-6.4-0.2-13.4-1.8-19.8c-0.9-3.7-2.9-7.3-2.7-11.2c0.1-3.1,1.6-5.9,3.1-8.6c3.7-6.7,7.8-13.1,12.3-19.3
		c4.3-5.9,9.5-12,16.6-13.5c4.2-0.9,8.6-0.1,12.8,1c12.2,3.2,24.1,9,32.9,18.1c2.7,2.7,4.9,5.8,6.3,9.4c1.3,3.6,1.5,7.7-0.1,11.1
		c-0.9,2-2.5,4-1.9,6.1c0.3,0.6,0.5,1.3,0.7,2c0.6,3.2-4.7,4.7-4.7,7.9c0,0.9,0.4,1.7,0.3,2.6c-0.2,1.8-2.4,2.5-3.4,4
		c-1.4,2.1-0.2,5.6-2.2,7.2c-1,0.8-2.6,0.9-2.9,2.1c-0.2,0.8,0.2,1.6,0.2,2.4c-0.1,1.4-1.6,2.3-2.4,3.4c-0.8,1.1-0.2,3.5,1.1,2.9
		l-3.6,2.6l1,2c-0.8,1.7-3.3,1.8-4.6,0.5s-1.5-3.4-0.9-5.1c0.7-1.7,1.7-3.3,2.9-4.6c2.3-2.9,4.4-6,6.3-9.2c1.6-2.6,3.1-5.6,2.6-8.6
		c-0.3-2.5-1.9-4.9-1.1-7.3l2.6-0.9l-4.5-5.2l2.2-0.5c-0.7-0.6-1.3-1.5-1.6-2.4c-0.3-1,0.3-1.9,1.2-2.2c1.3-3.9-6.3-7.1-4.3-10.8h-2
		c0-2-0.8-3.9-2.2-5.3c-1.6-1.5-3.6-2.3-5.8-2.4c-2.6-0.2-9.5,0.3-11.6,2c-1.3,1-0.7,2.2-1.5,3.3C330.6,633.6,329,633.7,327.9,634.8
		z"/>
	<path class="st6" d="M529.3,928.4c-0.9,4.7-3.9,9.6-6.4,13.7c-0.4,0.6-0.7,1.2-1.1,1.8l-0.6,0.9c-4.2,6.9-7.8,14.2-10.7,21.8
		c-0.7,1.8-1.3,3.5-1.9,5.3h-31.9c-2.2-3.3-3.2-7-4-10.7c-1.3-6.1-2-12.3-2-18.5c-0.1-4,0.1-8,0.6-12c0-0.4,0.1-0.7,0.1-1.1
		c0.6-4.6,2.1-9.5,6.7-12.3c0.4-0.2,0.8-0.4,1.1-0.6c0.1-0.1,0.2-0.1,0.3-0.2c2.1-0.9,4.3-1.6,6.6-2c3.3-0.7,6.6-1.3,9.9-1.8
		l1.1-0.1c1.9-0.2,3.7-0.4,5.6-0.6c1.1-0.1,2.1-0.2,3.2-0.2c5.7-0.3,11.9-0.2,16.4,2.5c3.7,2.2,5.7,4.7,6.6,7.4
		c0,0.1,0.1,0.3,0.1,0.4C529.7,924.1,529.7,926.3,529.3,928.4z"/>
	<path class="st6" d="M577.2,928.2c-3.1,2.6-5.4,5.9-6.8,9.7c-0.2,0.4-0.3,0.8-0.4,1.2c-1.8,5.2-2.3,11-2.6,16.4
		c-0.3,5.4-0.6,11-1,16.4h-55.6c-0.1-1.8-0.2-3.5-0.3-5.3c-0.2-4.5-0.2-9.1,0.1-13.6c0.1-3,0.5-6.1,1.3-9c0.1-0.3,0.2-0.6,0.3-0.9
		c0.1-0.3,0.3-0.8,0.5-1.3c2.5-5.9,8-10.2,14-12.4c0.9-0.3,1.8-0.6,2.7-0.9c5.2-1.5,10.7-1.9,16.2-2.1
		C554.3,926,569.4,924.2,577.2,928.2z"/>
	<path class="st12" d="M512.3,708.7c0.1,2.3-0.2,4.5-0.8,6.7c-1.3,3.7-4.6,6.3-8.2,7.7c-3.6,1.4-7.6,1.6-11.5,1.6
		c-5-0.1-10.7-0.3-14.2,3.2c-2.3,2.3-3.1,5.6-3.7,8.8c-2.5,11.4-4.9,23.6-0.3,34.3c2.9,6.8,8.4,12.3,14.7,16
		c6.4,3.7,13.6,5.8,20.8,7.1c2.9,0.5,5.8,0.8,8.8,0.8c10-0.1,19.4-4.7,28.3-9.2c2-0.9,3.8-2.1,5.4-3.6c1.4-1.7,2.5-3.7,3.2-5.8
		c4.8-12.2,9.2-24.6,13-37.2c1-3.3,2-6.8,2-10.3c-0.1-3.5-1.4-7.1-4.1-9.2c-4.2-3.2-10.2-1.9-15.5-1.3c-1.3,0.4-2.7-0.3-3.1-1.6
		c-0.1-0.2-0.1-0.5-0.1-0.8c-1.5-5.7-1.7-11.7-0.5-17.5c0.7-3.6,1.9-7.6,0.2-10.8c-2.3-4.5-8.5-5-13.5-4.9l-8.7,0.2
		c-1.3-0.1-2.6,0.2-3.7,0.7c-1.9,1.2-3.3,3.2-5.3,4.4c-1.7,1-2.8,0.9-3.5,2.9c-0.7,2,0.3,6,0.4,8.1
		C512.3,702.3,512.3,705.5,512.3,708.7z"/>
	<path class="st5" d="M488,764.5c1.2,1.7,2.6,3.3,4.3,4.6c3.4,2.4,8.1,2.6,12.1,1.3c4-1.2,7.6-3.6,11.1-6l28.5-19.4
		c4-2.7,7.9-5.4,12.4-6.9c1.1-0.5,2.4-0.6,3.6-0.3c1.2,0.5,2.1,1.4,2.8,2.4c3.8,4.9,7.6,9.9,9.5,15.8c1.8,5.4,1.8,11.3,1.7,17
		c-0.1,7.8-0.2,15.6-0.4,23.5c-0.1,4.4-0.2,8.9-1.5,13.1c-1.8,6-5.8,11.2-6.9,17.3c-1.1,6.4,1.1,12.8,3.2,18.9
		c8.3,25.2,13.5,51.2,15.7,77.7c0.2,2.5,0.3,5.1-0.9,7.2c-1,1.7-2.7,2.8-4.4,3.8c-21.7,12.8-48.6,11.8-73.5,8.5
		c-5.1-0.7-10.5-1.5-14.4-4.8c-2.8-2.4-4.5-5.7-6.1-8.9c-7.6-15.7-13.3-32.7-12.7-50.1c0.4-5.7,1-11.4,2-17
		c1.6-10.1,3-20.3,4.1-30.5c0.9-7.4,1.6-15.1-0.8-22.2c-2.4-7.3-8.1-13.3-10.3-20.8c-3.3-11,1.3-22.8,5.7-32.8
		c1.4-3.2,8.7-30,10.1-30.3C487,725,484.8,760.3,488,764.5z"/>
	<path class="st7" d="M488,763.5c1.2,1.7,2.6,3.3,4.3,4.6c3.4,2.4,8.1,2.6,12.1,1.3c4-1.2,7.6-3.6,11.1-6l28.5-19.4
		c4-2.7,7.9-5.4,12.4-6.9c1.1-0.5,2.4-0.6,3.6-0.3c1.2,0.5,2.1,1.4,2.8,2.4c3.8,4.9,7.6,9.9,9.5,15.8c1.8,5.4,1.8,11.3,1.7,17
		c-0.1,7.8-0.2,15.6-0.4,23.5c-0.1,4.4-0.2,8.9-1.5,13.1c-1.8,6-5.8,11.2-6.9,17.3c-1.1,6.4,1.1,12.8,3.2,18.9
		c8.3,25.2,13.5,51.2,15.7,77.7c0.2,2.5,0.3,5.1-0.9,7.2c-1,1.7-2.7,2.8-4.4,3.8c-21.7,12.8-48.6,11.8-73.5,8.5
		c-5.1-0.7-10.5-1.5-14.4-4.8c-2.8-2.4-4.5-5.7-6.1-8.9c-7.6-15.7-13.3-32.7-12.7-50.1c0.4-5.7,1-11.4,2-17
		c1.6-10.1,3-20.3,4.1-30.5c0.9-7.4,1.6-15.1-0.8-22.2c-2.5-7.3-8.2-13.3-10.4-20.8c-3.3-11,1.3-22.8,5.7-32.8
		c1.4-3.2,8.7-30,10.1-30.3C487,724,484.8,759.3,488,763.5z"/>
	<path class="st5" d="M590.6,722.2c-0.4,4.3-1.3,8.6-3.7,12.2c-3.5,5.1-9.7,7.5-15.5,9.7l-18.5,6.9c-3.5,1.4-7.2,2.6-10.9,3.4
		c-1.8,0.3-3.6,0.6-5.4,0.6c-7,0.2-14-1.2-20.5-4c-8.1-3.4-15.4-8.5-22.4-14c-4.3-3.3-8.5-6.8-12-10.9c-2.7-3.2-5.1-7.1-4.9-11.3
		c0.2-2,0.7-4,1.4-5.9c2.7-8.1,4.6-16.4,5.8-24.8c1.3-8.9,1.7-18,1.3-27c-0.2-3.3-0.5-6.6,0-9.9c1.6-11.8,5.6-19.9,15-27.2
		c2-1.5,10.2-3.5,12.6-4.2l0.5-0.1c4.3-0.9,12.9,2.1,16.9,3.5c15.8,5.3,26.6,20,26.9,36.7c0.1,2.9,0,6.3,1.7,8.5
		c0.2,0.3,0.5,0.6,0.7,0.8c1,0.8,2.2,1.3,3.2,2c2.8,2.1,3.3,6.2,2.8,9.6c-0.5,3.5-1.6,6.9-1.2,10.4c0.1,0.8,0.3,1.5,0.5,2.3
		c1,3,3,5.6,5,8.2l7.9,10.3c1.4,1.9,3.1,3.8,5.3,4.5l0.2,0.1c1.4,0.4,2.8,0.2,4.1,0.8C590.6,714.6,591,718.8,590.6,722.2z"/>
	<path class="st13" d="M393.8,613.3c-10.2,6.8-13.1,20.2-17.3,31.6c-1.6,4.4-3.6,8.8-4.5,13.4c-1.2,5.8-0.7,11.8-0.8,17.7
		c-0.7,25.2-12.5,48.8-32.2,64.6l58.4,17.4c3.7,1.2,7.5,2.1,11.3,2.9c5.5,1,11.2,1,16.8,1.1l35.7,0.3c2.7,0,5.9-0.2,7.4-2.4
		c0.7-1.1,1-2.4,0.9-3.8c-0.1-7.2-5.6-13.1-8.3-19.8c-4.3-10.8,5.6-20.7,5.2-32.3c-0.2-5.4-0.4-13.4,0-18.8
		c0.8-12.5,0.9-23.9-0.5-36.3c-1.6-14-13.9-23.9-25.3-32.2C428.2,607.8,407.3,604.3,393.8,613.3z"/>
	<path class="st3" d="M406.9,670.9l-0.2,40.8c-6.6,0.3-13.2,1.3-19.7,3c-11.2,2.8-18.4,13.6-16.7,25l7.7,52.6l83.5,4.9v-50.9l0,0
		c-2.5-11.9-13.9-19.7-25.9-17.8l-3.3,0.5l7.4-42.5L406.9,670.9z"/>
	<path class="st7" d="M388.4,710.7c0,0,16.8,34.1,18.3,41c1.5,6.9-30.6,31.1-35.1,28.7c-4.5-2.5-4,58.3-4,58.3l86-8.4l2-12.4
		c0,0,22.2-9.4,2-47l-5.9-2.5c0,0-4.9,19.8-42-17.8l-17.8-41.5L388.4,710.7z"/>
	<path class="st5" d="M454.8,817.2c0,0-16.8,1.5-18.3-2l-3-0.5c0,0-4.9,10.9-51.4-0.5l-14.6-0.5l-3.2,7.4l90.6,3L454.8,817.2z"/>
	<path class="st14" d="M484.7,753.4"/>
	<path class="st5" d="M407.7,698.3c1,0.7,2.1,1.3,3.2,1.7c2.8,1.1,5.9,1.2,8.9,1.3c5.4,0.1,11.3,0.2,15.7-3.1c2-1.5,3.5-3.5,4.6-5.8
		l0.6-3.6l-32.9-15.5L407.7,698.3z"/>
	<path class="st3" d="M387.3,648.9c-2,16.5,4,33,16.2,44.4c1.9,1.8,4,3.3,6.4,4.3c2.8,1.1,5.9,1.2,8.9,1.3
		c5.4,0.1,11.3,0.2,15.7-3.1c5.2-3.8,6.5-10.9,7.5-17.2l3-19.9c0.9-5.8,1.7-12-0.9-17.2c-4.5-8.9-21.9-17.2-31.7-16.2
		C399.6,626.7,389,636.2,387.3,648.9z"/>
	<path class="st5" d="M400,642.7c-2.8,5.9-4.7,12.5-3.7,19c0.9,5.5,3.9,10.4,6.9,15.1c6.8,10.6,14.3,21.5,15.7,34
		c0.5,4.5,0.1,9.2-1.8,13.2c-2,4.1-5.7,7.4-10.2,8.1c-1.2,0.3-2.5,0.1-3.6-0.4c-1.4-0.8-2.2-2.3-2.9-3.7c-3.4-6.8-19.7-8.8-27.1-7.3
		c-1,0.2,7.9-4.7,6.9-4.9c-3.1-0.5-3.6-4.6-3.4-7.7l4.3-59.7c0.2-3.4,0.5-6.8,1.6-10c4-11.6,17.6-16.8,29.8-17.2
		c3.8-0.2,7.6,0.2,11.3,1c8.5,2,16,7.4,21.7,14c4,4.5,7.3,9.8,8.6,15.7c1.5,6.7,0.3,13.8-0.8,20.6c-5.3,32.1-8.2,65.6,1.7,96.5
		c-9.4,1.9-19.6-4.7-21.7-14c-0.8-3.7-0.5-7.6-0.2-11.4c1.3-14.5,2.5-29,4.7-43.4c1.7-11,4-21.9,4.1-33c0.1-9-1.4-18.7-7.6-25.4
		C424.4,631.1,407.1,627.7,400,642.7z"/>
	<path class="st13" d="M400,641.8c-2.8,5.9-4.7,12.5-3.7,19c0.9,5.5,3.9,10.4,6.9,15.1c6.8,10.6,14.3,21.5,15.7,34
		c0.5,4.5,0.1,9.2-1.8,13.2s-5.7,7.4-10.2,8.1c-1.2,0.3-2.5,0.1-3.6-0.4c-1.4-0.8-2.2-2.3-2.9-3.7c-3.4-6.8-19.7-8.8-27.1-7.3
		c-1,0.2,7.9-4.7,6.9-4.9c-3.1-0.5-3.6-4.6-3.4-7.7l4.3-59.7c0.2-3.4,0.5-6.8,1.6-10c4-11.6,17.6-16.8,29.8-17.2
		c3.8-0.2,7.6,0.2,11.3,1c8.5,2,16,7.4,21.7,14c4,4.5,7.3,9.8,8.6,15.7c1.5,6.7,0.3,13.8-0.8,20.6c-5.3,32.1-8.2,65.6,1.7,96.5
		c-9.4,1.9-19.6-4.7-21.7-14c-0.8-3.7-0.5-7.6-0.2-11.4c1.3-14.5,2.5-29,4.7-43.4c1.7-11,4-21.9,4.1-33c0.1-9-1.4-18.7-7.6-25.4
		C424.4,630.1,407.1,626.7,400,641.8z"/>
	<rect x="199.3" y="823.9" class="st15" width="303.4" height="148"/>
	<path class="st3" d="M129.6,722.5c-2.6,1.3-5.2,2.7-7.2,4.7c-2,2.1-3.3,5-4.4,7.8c-2.6,6.9-4.2,14.1-5.8,21.3
		c-5.7,25.7-11.4,51.5-12.6,77.8c-0.3,6.5-0.3,13.1,1.3,19.3c1.8,6.9,5.4,13.1,9.2,19c12.4,19.3,27.4,36.8,44.4,52
		c1.1,0.8,2,1.8,2.7,3c0.5,1.1,1,2.2,1.3,3.4c3.2,9,12,14.6,20.2,19.5c3.3,2,6.7,4,10.5,4.6c2,0.3,4,0.3,5.8,1
		c2.9,1.1,4.7,4,7.5,5.4c2.8,1.4,7.3-0.3,6.6-3.2c2.6,2,6.7-2.2,4.7-4.7c2,1.3,4.8-0.9,5.1-3.3s-1.1-4.7-2.4-6.7
		c-4.5-7-9.1-14.1-15.8-19c-7.2-5.2-16.1-7.4-23.5-12.2c-7.2-4.7-12.4-11.8-17.5-18.7c-10.3-14.2-20.3-28.7-29.9-43.4
		c-1.3-1.9-2.6-4-3-6.2c-0.4-2.3,0-4.7,0.5-7c4.7-21.9,11.4-43.4,19.9-64.1c2.2-5.6,4.8-11,7.9-16.2c4.3-6.9,9.8-12.9,13.9-19.9
		s6.7-15.4,4.5-23.2c-2.2-7.6-11.9-15.6-18.9-9.8c-4,3.2-6.7,7.6-11,10.7C139.3,717.3,134.6,720.1,129.6,722.5z"/>
	<path class="st0" d="M378.9,868.7c-1.8-4.3-4.4-8.2-7.7-11.5c-1.5-1.5-3.2-2.9-5-4.2l-0.2-0.1l0,0c-9.7-6.6-22-8.1-33-4
		c-0.2,0.1-0.5,0.2-0.7,0.3c-0.2,0.1-0.5,0.2-0.7,0.3c-18.4,7.7-27,28.9-19.2,47.3c5.4,12.9,17.8,21.4,31.7,22v18h-19.5v3h19.5v19.5
		h3v-19.5h19.4v-3h-19.5v-18c19.9-0.9,35.4-17.7,34.5-37.6C381.5,876.9,380.5,872.6,378.9,868.7z M345.6,915.8
		c-18.3,0-33-14.8-33-33.1c0-14.2,9.1-26.8,22.6-31.3l0.6-0.2c3.2-1,6.5-1.5,9.8-1.5c5.4,0,10.7,1.3,15.5,3.9l0.2,0.1
		c16.1,8.6,22.1,28.7,13.5,44.8C369,909.1,357.8,915.8,345.6,915.8L345.6,915.8z"/>
	<path class="st3" d="M169.5,629.4c-2.9,7.5-1.3,15.8,0.3,23.7c0.9,4.5,1.9,9.1,4.1,13.1c1.8,3.1,4.1,5.9,6.9,8.2
		c6.9,5.7,15.5,9,24.5,9.2c1.8,0.1,3.6-0.1,5.3-0.8c2.1-1,3.6-2.9,4.9-4.7c3.4-4.7,6.9-9.5,9.3-14.8c4.2-9.6,4.7-20.3,5-30.8
		c0.2-1.5,0-3.1-0.5-4.6c-0.4-0.9-0.9-1.7-1.5-2.4c-6.3-8.3-18.4-21.5-29.9-17.7C187.2,611.3,173.7,618.3,169.5,629.4z"/>
	<path class="st5" d="M200.1,956.6c-1.8-0.7-3.9-0.7-5.8-1c-3.8-0.6-7.2-2.6-10.5-4.6c-8.2-4.9-17-10.5-20.2-19.5
		c-0.3-1.2-0.8-2.3-1.3-3.4c-0.7-1.1-1.7-2.1-2.7-3c-17.1-15.3-32-32.8-44.4-52c-3.8-6-7.5-12.2-9.2-19c-1.6-6.3-1.6-12.9-1.3-19.3
		c1.2-26.3,6.9-52.1,12.6-77.8c1.6-7.2,3.2-14.4,5.8-21.3c1.1-2.8,2.3-5.7,4.4-7.8c2.1-2.2,4.6-3.4,7.2-4.7
		c4.9-2.4,9.7-5.2,14.2-8.3c4.3-3.1,7.1-7.5,11-10.7c0.9-0.7,1.9-1.3,2.9-1.6c-2.7-0.9-5.7-0.3-7.9,1.6c-4,3.2-6.7,7.6-11,10.7
		c-4.5,3.1-9.3,5.9-14.2,8.3c-2.6,1.3-5.2,2.7-7.2,4.7c-2,2.1-3.3,5-4.4,7.8c-2.6,6.9-4.2,14.1-5.8,21.3
		c-5.6,25.7-11.3,51.5-12.6,77.8c-0.3,6.5-0.3,13.1,1.3,19.3c1.8,6.9,5.4,13.1,9.2,19c12.4,19.3,27.4,36.8,44.4,52
		c1.1,0.8,2,1.8,2.7,3c0.5,1.1,1,2.2,1.3,3.4c3.2,9,12,14.6,20.2,19.5c3.3,2,6.7,4,10.5,4.6c2,0.3,4,0.3,5.8,1
		c2.9,1.1,4.7,4,7.5,5.4c1.5,0.7,3.3,0.7,4.8-0.1C204.8,960.4,202.9,957.7,200.1,956.6z"/>
	<path class="st4" d="M178.5,624.7c-4.8,7.7-5.7,17.5-3.4,26.3c1.7,6.6,5.1,13.4,2.8,19.9c-1.7,4.8-6.6,9.6-4.2,14.2
		c0.5,1,1.4,1.9,1.7,2.9c0.5,1.9-0.7,3.7-1.5,5.5c-4.4,9.1,0.9,19.6,3.4,29.5c1.9,7.3,2.3,14.8,2.7,22.3l-4.7-12.1
		c-2,10.2-6.2,19.8-12.4,28.1c3.5,0,6.9,0.6,10.3,1.6c-5.4-0.7-10.4,3.2-11,8.6c-0.6,4.8,2.4,9.3,7.1,10.7
		c-4.9,1.1-9.9-2.2-12.2-6.6c-2.3-4.4-2.5-9.6-2.2-14.6l-4,0.3c4-9.5,5.6-19.8,4.9-30c-0.3-4.5-1.8-9.9-6.2-11.2l-1.3,12l-5.3-10.7
		c-0.3-0.9-1-1.7-1.8-2.3c-0.6-0.2-1.3-0.4-2-0.5c-2.1-0.6-2.9-3.4-2.2-5.4c0.6-2.1,2.3-3.6,3.9-5.1c5.4-5,10.7-10.4,13.6-17.1
		c2.7-6.3,3.1-13.3,3.4-20.1c0.3-8,0.6-16,0.8-24c0.1-6.3,0.2-12.7,1.6-18.9c2.4-10.4,8.7-20.1,18-25.5c9.3-5.3,21.5-5.8,30.6-0.3
		c5.5,3.3,9.6,8.5,13.6,13.5l11.5,14.5c2.4,3,4.8,6.1,5.9,9.7c2,6.7-0.8,13.9-4.2,20.1s-7.6,12.2-8.4,19.2c-1,8.1,2.6,15.9,6.1,23.2
		c4.5,9.3,9,18.7,15.7,26.6c3.4,4,7.5,7.9,8.5,13c-1.5,1.2-3.4,1.6-5.3,1.2c2.7,10.8,4.9,21.8,6.5,32.8
		c-9.7-6.4-19.2-13.2-28.3-20.5c-0.8,3.7-3.4,6.7-6.9,8c-0.3-3.1,0.8-6.1,0.9-9.2c0.2-3.1-1-6.7-4-7.6c-1.7-0.5-3.7-0.1-5.2-1.1
		c-1.1-0.8-1.5-2.1-1.8-3.4L207,718c-4-0.2-8,0.8-11.5,2.8c5-2.8,8.6-7.4,10.3-12.8l-13.7-0.2c3.6-3.4,7.1-7,10.5-10.6
		c4.9-5.3,9.7-10.9,13.3-17.2c10.1-17.7,10.2-40.6,0.4-58.4c-1.6-2.9-3.6-5.8-6.3-7.8C200.1,606.9,183.9,616,178.5,624.7z"/>
	<path class="st5" d="M237.1,820c0-2.1,1-4.1,2.1-5.9c1.4-2.5,3-5,4.6-7.4c1.2-1.9,2.8-3.6,4.6-4.9c1.9-1.2,4.5-1.6,6.5-0.5
		c0.4,0.3,0.9,0.6,1.5,0.6c0.8,0,1.3-0.8,2-1.1c1.3-0.6,2.7,0.3,3.6,1.4c0.9,1.1,1.6,2.4,2.9,3c0.5,0.2,1,0.3,1.4,0.5
		c1.6,0.7,2.5,2.5,3.2,4.1c0.6,1.1,0.9,2.3,1,3.5c0,2.1-1.6,3.9-3.1,5.4l-3.8,4c-1,1.1-2.1,2.1-3.4,2.8c-1.3,0.8-2.8,0.9-4.2,0.4
		c-0.3-0.2-0.7-0.3-1.1-0.3c-0.3,0.1-0.6,0.3-0.7,0.6c-0.8,1-1.6,2.1-2.4,3.2c-0.6,1.2-1.5,2.2-2.6,3c-1.2,0.6-2.9,0.4-3.5-0.8
		c-0.1-0.2-0.2-0.5-0.4-0.6c-0.5-0.4-1.1,0.2-1.7,0.5c-0.9,0.4-2-0.4-2.4-1.4c-0.2-1-0.2-2,0.2-3c-0.7-0.6-1.7-0.2-2.6-0.2
		c-1.9,0.1-1.5-1.1-1.4-2.2C237.5,823.1,237.1,821.6,237.1,820z"/>
	<path class="st3" d="M236.6,821c0-2.1,1-4.1,2.1-5.9c1.4-2.5,3-5,4.6-7.4c1.2-1.9,2.8-3.6,4.6-4.9c1.9-1.2,4.5-1.6,6.5-0.5
		c0.4,0.3,0.9,0.6,1.5,0.6c0.8,0,1.3-0.8,2-1.1c1.3-0.6,2.7,0.3,3.6,1.4c0.9,1.1,1.6,2.4,2.9,3c0.5,0.2,1,0.3,1.4,0.5
		c1.6,0.7,2.5,2.5,3.2,4.1c0.6,1.1,0.9,2.3,1,3.5c0,2.1-1.6,3.9-3.1,5.4l-3.8,4c-1,1.1-2.1,2.1-3.4,2.8c-1.3,0.8-2.8,0.9-4.2,0.4
		c-0.3-0.2-0.7-0.3-1.1-0.3c-0.3,0.1-0.6,0.3-0.7,0.6c-0.8,1-1.6,2.1-2.4,3.2c-0.6,1.2-1.5,2.2-2.6,3c-1.2,0.6-2.9,0.4-3.5-0.8
		c-0.1-0.2-0.2-0.5-0.4-0.6c-0.5-0.4-1.1,0.2-1.7,0.5c-0.9,0.4-2-0.4-2.4-1.4c-0.2-1-0.2-2,0.2-3c-0.7-0.6-1.7-0.2-2.6-0.2
		c-1.9,0.1-1.5-1.1-1.4-2.2C237,824,236.6,822.6,236.6,821z"/>
	<path class="st5" d="M369.3,781.1l-47.9,37.1l-33.2,25.7c-20.3,18.8-26.7-7.9-26.7-7.9l4.9-77.6c-0.2-19.9,3.1-31.5,7.3-38.2
		c3.5-5.5,7.7-7.7,11.2-8.5l0.6-0.1c2.2-0.4,4.4-0.3,6.6,0.3c14.2,5.6,13.7,21.4,11.4,32.5c-0.8,3.9-2,7.8-3.5,11.5
		c0,1.4,0,2.8-0.2,4.2c-1,12.6-5.8,46.3-5.8,46.3l57.3-39L369.3,781.1z"/>
	<path class="st11" d="M367.9,781.1L320,818.2l-33.2,25.7c-20.3,18.8-26.7-7.9-26.7-7.9l4.9-77.6c-0.2-19.9,3.1-31.5,7.3-38.2
		c3.5-5.5,7.7-7.7,11.2-8.5l0.6-0.1c2.2-0.4,4.4-0.3,6.6,0.3c14.2,5.6,13.7,21.4,11.4,32.5c-0.8,3.9-2,7.8-3.5,11.5
		c0,1.4,0,2.8-0.2,4.2c-1,12.6-5.8,46.3-5.8,46.3l57.3-39L367.9,781.1z"/>
	<path class="st5" d="M353.3,754.7c0,0-25.7,59.8-21.7,88c0,0-5.9,17.3,41.5,9.4l67.2-14.8l18.3,4.5l4,4.9v13.8c0,0,5.4,4,6.9,0
		c1.5-4,0-14.3,0-14.3l3.5,5.9l1.5,11.9c0,0,4,3,5.4,0l-2-17.3c0,0,7.9,16.3,11.4,14.8c3.5-1.5-4.5-20.3-4.5-20.3l0,0
		c3.1,0,6,1.7,7.6,4.4c1.6,2.7,3.6,5.5,5.3,4.5c3-2,0-7.4,0-7.4l-6.9-9.9l0,0c-9.6-7.4-21.4-11.5-33.5-11.6l-88.6-1.2
		c0,0,12.4-29.2,13.3-43.5c0,0,0.5-8.9,11.4-14.8C404.2,755.6,366.1,702.8,353.3,754.7z"/>
	<path class="st3" d="M389.8,723c0,0-24.7-20.3-37.6,31.6c0,0-25.7,59.8-21.7,88c0,0-5.9,17.3,41.5,9.4l67.2-14.8l18.3,4.5l4,4.9
		v13.8c0,0,5.4,4,6.9,0c1.5-4,0-14.3,0-14.3l3.5,5.9l1.5,11.9c0,0,4,3,5.4,0l-2-17.3c0,0,7.9,16.3,11.4,14.8
		c3.5-1.5-4.4-20.2-4.4-20.2l0,0c3.1,0,6,1.7,7.6,4.4c1.6,2.7,3.6,5.5,5.3,4.5c3-2,0-7.4,0-7.4l-6.9-9.9l0,0
		c-9.6-7.4-21.4-11.5-33.5-11.6l-88.6-1.2c0,0,12.4-29.2,13.3-43.5c0,0,0.5-8.9,11.4-14.8C403.2,755.7,389.8,723,389.8,723z"/>
	<path class="st5" d="M555.4,727.5c0,0,35.1-25.7,36.6,22.7l2,100.3l-56.3,60.3c0,0-3.5,11.4-13.8,12.4L512.4,937
		c0,0-5.4,0.5-4.5-1.5s7.9-15.3,7.9-15.3L501,940c0,0-4.5-1.5-3-3c0,0-4.9,5.4-5.9,0.5s0-4,0-4s-6.4,4.9-4.9-2s14.3-29.2,15.8-29.2
		c1.5,0,18.8-1.5,18.8-1.5l47.4-57.8c0,0-15.8-67.2-20.3-90.9C544.5,728.5,555.4,727.5,555.4,727.5z"/>
	<path class="st12" d="M556.4,727.5c0,0,35.1-25.7,36.6,22.7l2,100.3l-56.3,60.3c0,0-3.5,11.4-13.8,12.4L513.4,937
		c0,0-5.4,0.5-4.5-1.5s7.9-15.3,7.9-15.3L502,940c0,0-4.5-1.5-3-3c0,0-4.9,5.4-5.9,0.5s0-4,0-4s-6.4,4.9-4.9-2s14.3-29.2,15.8-29.2
		c1.5,0,18.8-1.5,18.8-1.5l47.4-57.8c0,0-15.8-67.2-20.3-90.9C545.5,728.5,556.4,727.5,556.4,727.5z"/>
	<path class="st15" d="M590.6,720.7c-0.4,4.3-1.3,8.6-3.7,12.2c-3.5,5.1-9.7,7.5-15.5,9.7l-18.5,6.9c-3.5,1.4-7.2,2.6-10.9,3.4
		c-1.8,0.3-3.6,0.6-5.4,0.6c-7,0.2-14-1.2-20.5-4c-8.1-3.4-15.4-8.5-22.4-14c-4.3-3.3-8.5-6.8-12-10.9c-2.7-3.2-5.1-7.1-4.9-11.3
		c0.2-2,0.7-4,1.4-5.9c2.7-8.1,4.6-16.4,5.8-24.8c1.3-8.9,1.7-18,1.3-27c-0.2-3.3-0.5-6.6,0-9.9c1.6-11.8,5.6-19.9,15-27.2
		c2-1.5,10.2-3.5,12.6-4.2l0.5-0.1c4.3-0.9,12.9,2.1,16.9,3.5c15.8,5.3,26.6,20,26.9,36.7c0.1,2.9,0,6.3,1.7,8.5
		c0.2,0.3,0.5,0.6,0.7,0.8c1,0.8,2.2,1.3,3.2,2c2.8,2.1,3.3,6.2,2.8,9.6s-1.6,6.9-1.2,10.4c0.1,0.8,0.3,1.5,0.5,2.3c1,3,3,5.6,5,8.2
		l7.9,10.3c1.4,1.9,3.1,3.8,5.3,4.5l0.2,0.1c1.4,0.4,2.8,0.2,4.1,0.8C590.6,713.1,591,717.3,590.6,720.7z"/>
	<path class="st5" d="M493.9,650.7c-3.4,6.6-4.5,14.2-4.7,21.6c-0.1,3.8,0.1,7.7,1.3,11.3c1.1,2.9,2.5,5.6,4.2,8.2l7.5,12.3
		c1,1.7,2.1,3.4,3.9,4.3s4.1,0.7,6.1,0.5c4.9-0.6,9.9-1.4,14.3-3.6c5.7-2.9,9.9-8,13.9-12.9c2.6-2.5,3.9-6.1,3.3-9.6l-0.9-19.6
		c0-2-0.3-4-0.9-5.9c-1.7-4.6-6.6-7.1-10.7-9.8c-6.1-4-12.9-10.4-20.8-9.9C503.3,637.9,497,644.7,493.9,650.7z"/>
	<path class="st12" d="M493.9,649.7c-3.4,6.6-4.5,14.2-4.7,21.6c-0.1,3.8,0.1,7.7,1.3,11.3c1.1,2.9,2.5,5.6,4.2,8.2l7.5,12.3
		c1,1.7,2.1,3.4,3.9,4.3s4.1,0.7,6.1,0.5c4.9-0.6,9.9-1.4,14.3-3.6c5.7-2.9,9.9-8,13.9-12.9c2.6-2.5,3.9-6.1,3.3-9.6l-0.9-19.6
		c0-2-0.3-4-0.9-5.9c-1.7-4.6-6.6-7.1-10.7-9.8c-6.1-4-12.9-10.4-20.8-9.9C503.3,636.9,497,643.7,493.9,649.7z"/>
	<g class="st16">
		<path class="st2" d="M478.2,715.3c2.7-8.1,4.6-16.4,5.8-24.8c1.1-7.9,1.6-15.8,1.4-23.8c-0.1,5.5-0.6,11-1.4,16.4
			c-1.2,8.4-3.2,16.7-5.8,24.8c-0.7,1.9-1.2,3.9-1.4,5.9c0,1.4,0.2,2.8,0.6,4.1C477.6,717,477.9,716.1,478.2,715.3z"/>
		<path class="st2" d="M564.7,687.8c-0.4,1.9-0.5,3.9-0.3,5.8c0.1,0.8,0.3,1.5,0.5,2.3c1,3,3,5.6,5,8.2l7.9,10.3
			c1.4,1.9,3.1,3.8,5.3,4.5l0.2,0.1c1.4,0.4,2.8,0.2,4.1,0.8c1.5,0.7,2.6,2.1,2.9,3.7c0.1-0.7,0.2-1.5,0.3-2.2
			c0.3-3.4,0-7.6-3.2-8.9c-1.3-0.5-2.8-0.4-4.1-0.8l-0.2-0.1c-2.2-0.7-3.8-2.7-5.3-4.5l-7.9-10.3c-2-2.5-4-5.2-5-8.2
			C564.9,688.3,564.8,688,564.7,687.8z"/>
		<path class="st2" d="M485.2,653.6c1.6-11.8,5.6-19.9,15-27.2c2-1.5,10.2-3.5,12.6-4.2l0.5-0.1c4.3-0.9,12.9,2.1,16.9,3.5
			c15.8,5.3,26.6,20,26.9,36.7c0.1,2.9,0,6.3,1.7,8.5c0.2,0.3,0.5,0.6,0.7,0.8c1,0.8,2.2,1.3,3.2,2c1.3,1,2.1,2.4,2.5,4
			c0.1-0.6,0.2-1.1,0.3-1.7c0.5-3.5,0-7.5-2.8-9.6c-1-0.8-2.2-1.2-3.2-2c-0.3-0.2-0.5-0.5-0.7-0.8c-1.7-2.2-1.6-5.5-1.7-8.5
			c-0.3-16.7-11.1-31.3-26.9-36.7c-4-1.4-12.5-4.3-16.9-3.5l-0.5,0.1c-2.4,0.7-10.6,2.6-12.6,4.2c-9.4,7.3-13.5,15.4-15,27.2
			c-0.3,2.7-0.3,5.4-0.1,8.1C485.2,654.1,485.2,653.8,485.2,653.6z"/>
	</g>
	<path class="st17" d="M229.7,842.9c-3-2.9-7.8-2.9-10.7,0.1c-2.9,3-2.9,7.8,0.1,10.7l0,0l10.8,10.6l10.6-10.8
		c2.9-3,2.9-7.8-0.1-10.7C237.4,839.9,232.6,839.9,229.7,842.9L229.7,842.9z"/>
	<path class="st17" d="M461.5,930.4c-3-2.9-7.8-2.9-10.7,0.1c-2.9,3-2.9,7.8,0.1,10.7l10.8,10.6l10.6-10.8c2.9-3,2.9-7.8-0.1-10.7
		C469.2,927.4,464.4,927.4,461.5,930.4L461.5,930.4z"/>
	<path class="st2" d="M140.4,626.2c-0.4,0-0.6,0.4-0.6,0.7c0,0.3,0.3,0.6,0.6,0.6c0.4,0,0.6-0.4,0.6-0.7
		C140.9,626.5,140.7,626.3,140.4,626.2z"/>
</g>
<path class="st2" d="M25.2,707.7c-0.4,0-0.7,0.3-0.6,0.6c0,0.3,0.3,0.5,0.6,0.5c0.4,0,0.7-0.3,0.6-0.6
	C25.8,707.9,25.5,707.7,25.2,707.7z"/>
<path class="st2" d="M195.1,666.7c-0.4,0-0.7,0.3-0.6,0.6c0,0.3,0.3,0.5,0.6,0.5c0.4,0,0.7-0.3,0.6-0.6
	C195.6,667,195.4,666.7,195.1,666.7z"/>
<path class="st2" d="M580.4,731.2c-0.4,0-0.7,0.3-0.6,0.6c0,0.3,0.3,0.5,0.6,0.5c0.4,0,0.7-0.3,0.6-0.6
	C580.9,731.5,580.7,731.2,580.4,731.2z"/>
<path class="st2" d="M557.6,795.7c-0.4,0-0.7,0.3-0.6,0.6c0,0.3,0.3,0.5,0.6,0.5c0.4,0,0.7-0.3,0.6-0.6
	C558.2,796,557.9,795.8,557.6,795.7z"/>
<path class="st2" d="M397,565.6c-0.4,0-0.7,0.3-0.6,0.6c0,0.3,0.3,0.5,0.6,0.5c0.4,0,0.7-0.3,0.6-0.6
	C397.6,565.8,397.4,565.6,397,565.6z"/>
<path class="st2" d="M298.6,542.1c-0.4,0-0.7,0.3-0.6,0.6c0,0.3,0.3,0.5,0.6,0.5c0.4,0,0.7-0.3,0.6-0.6
	C299.2,542.3,299,542.1,298.6,542.1z"/>
<path class="st2" d="M185.7,565.6c-0.4,0-0.7,0.3-0.6,0.6c0,0.3,0.3,0.5,0.6,0.5c0.4,0,0.7-0.3,0.6-0.6
	C186.3,565.8,186.1,565.6,185.7,565.6z"/>
<path class="st2" d="M662.2,468.8h-1c-1,0-1.7,0.6-1.7,1.5s0.8,1.5,1.7,1.5h1c1,0,1.7-0.6,1.7-1.5S663.1,468.8,662.2,468.8z"/>
<path class="st2" d="M562.7,516.8c-2.2,0-2.2,2.9,0,2.9S565,516.8,562.7,516.8z"/>
<path class="st2" d="M484.1,565.6c-2.2,0-2.2,2.9,0,2.9C486.3,568.5,486.3,565.6,484.1,565.6z"/>
<path class="st2" d="M563.8,675.4c-2.2,0-2.2,2.9,0,2.9S566,675.4,563.8,675.4z"/>
<path class="st2" d="M644.6,655.4c-2.2,0-2.2,2.9,0,2.9C646.8,658.3,646.8,655.4,644.6,655.4z"/>
<path class="st2" d="M576.2,847.2h-1c-1,0-1.7,0.7-1.7,1.5c0,0.8,0.8,1.4,1.7,1.4h1c1,0,1.7-0.6,1.7-1.4
	C578,847.8,577.2,847.2,576.2,847.2C576.2,847.2,576.2,847.2,576.2,847.2z"/>
<path class="st2" d="M32.4,857.6c-2.2,0-2.2,2.9,0,2.9S34.7,857.6,32.4,857.6z"/>
<linearGradient id="SVGID_1_" gradientUnits="userSpaceOnUse" x1="534.2386" y1="653.6745" x2="591.5138" y2="653.6745" gradientTransform="matrix(1 0 0 -1 0 1227.4929)">
	<stop  offset="0" style="stop-color:#FFFFFF"/>
	<stop  offset="0.77" style="stop-color:#FFFFFF;stop-opacity:0.15"/>
</linearGradient>
<line class="st18" x1="534.7" y1="597.5" x2="591" y2="550.1"/>
<linearGradient id="SVGID_2_" gradientUnits="userSpaceOnUse" x1="464.4934" y1="768.7483" x2="521.7686" y2="768.7483" gradientTransform="matrix(1 0 0 -1 0 1227.4929)">
	<stop  offset="0" style="stop-color:#FFFFFF"/>
	<stop  offset="0.77" style="stop-color:#FFFFFF;stop-opacity:0.15"/>
</linearGradient>
<line class="st19" x1="465" y1="482.4" x2="521.3" y2="435.1"/>
<path class="st20" d="M167.9,815.1h-17.2c3.6-0.8,6.1-2.8,6.1-5.1c0-2.3-2.5-4.3-6.1-5.1h7.5c5.3,0,9.7-2.5,9.7-5.5
	c0-3-4.3-5.5-9.7-5.5H97.4c-5.3,0-9.7,2.5-9.7,5.5c0,2.3,2.5,4.3,6.1,5.1h-7.5c-5.3,0-9.7,2.5-9.7,5.5c0,3,4.3,5.5,9.7,5.5h17.2
	c-3.6,0.8-6.1,2.8-6.1,5.1c0,3,4.3,5.5,9.7,5.5h60.8c5.3,0,9.7-2.5,9.7-5.5C177.5,817.6,173.2,815.1,167.9,815.1z"/>
<path class="st20" d="M440.4,512.2h-22.7c4.7-0.8,8.1-2.8,8.1-5.1c0-2.3-3.4-4.3-8.1-5.1h9.9c7,0,12.8-2.5,12.8-5.5
	c0-3-5.8-5.5-12.8-5.5h-80.5c-7,0-12.8,2.5-12.8,5.5c0,2.3,3.4,4.3,8.1,5.1h-9.9c-7,0-12.8,2.5-12.8,5.5c0,3,5.8,5.5,12.8,5.5h22.7
	c-4.7,0.8-8.1,2.8-8.1,5.1c0,3,5.8,5.5,12.8,5.5h80.5c7,0,12.8-2.5,12.8-5.5S447.5,512.2,440.4,512.2z"/>
<path class="st21" d="M233.8,324h-19.5c4.1-0.8,7-2.8,7-5.1s-2.9-4.3-7-5.1h8.5c6.1,0,11-2.5,11-5.5c0-3-5-5.5-11-5.5h-69.2
	c-6.1,0-11,2.5-11,5.5c0,2.3,2.9,4.3,7,5.1H141c-6.1,0-11,2.5-11,5.5c0,3,5,5.5,11,5.5h19.5c-4.1,0.8-7,2.8-7,5.1c0,3,5,5.5,11,5.5
	h69.2c6.1,0,11-2.5,11-5.5C244.8,326.4,239.9,324,233.8,324z"/>
<path class="st21" d="M588.5,238.7h-13.7c2.8-0.8,4.9-2.8,4.9-5.1c0-2.3-2-4.3-4.9-5.1h6c4.2,0,7.7-2.5,7.7-5.5s-3.5-5.5-7.7-5.5
	h-48.4c-4.2,0-7.7,2.5-7.7,5.5c0,2.3,2,4.3,4.9,5.1h-6c-4.2,0-7.7,2.5-7.7,5.5s3.5,5.5,7.7,5.5h13.7c-2.8,0.8-4.9,2.8-4.9,5.1
	c0,3,3.5,5.5,7.7,5.5h48.4c4.2,0,7.7-2.5,7.7-5.5S592.7,238.7,588.5,238.7z"/>
<path class="st21" d="M325.1,50.5h-13c2.7-0.8,4.6-2.8,4.6-5.1s-1.9-4.3-4.6-5.1h5.7c4,0,7.3-2.5,7.3-5.5s-3.3-5.5-7.3-5.5h-46
	c-4,0-7.3,2.5-7.3,5.5c0,2.3,1.9,4.3,4.6,5.1h-5.7c-4,0-7.3,2.5-7.3,5.5s3.3,5.5,7.3,5.5h13c-2.7,0.8-4.6,2.8-4.6,5.1
	c0,3,3.3,5.5,7.3,5.5h46c4,0,7.3-2.5,7.3-5.5S329.1,50.5,325.1,50.5z"/>
<path class="st22" d="M212.8,147.5c-2.7,0-2.7,4.1,0,4.1S215.4,147.5,212.8,147.5z"/>
<path class="st22" d="M633.5,280.4c-2.7,0-2.7,4.1,0,4.1C636.1,284.5,636.1,280.4,633.5,280.4z"/>
<path class="st22" d="M78.7,59.3c-2.7,0-2.7,4.1,0,4.1C81.4,63.4,81.4,59.3,78.7,59.3z"/>
<path class="st22" d="M-31.1,500.3c-3.1,0-3.1,4.1,0,4.1S-28,500.3-31.1,500.3z"/>
<path class="st22" d="M64,985.7c-3.1,0-3.1,4.1,0,4.1S67.1,985.7,64,985.7z"/>
<path class="st22" d="M601.9,95.8c-6,0-6,7.6,0,7.6S607.9,95.8,601.9,95.8z"/>
<path class="st22" d="M85.2,202.3c-6,0-6,7.6,0,7.6S91.2,202.3,85.2,202.3z"/>
<path class="st22" d="M745.4,621.4c-7,0-7,7.6,0,7.6C752.4,628.9,752.4,621.4,745.4,621.4z"/>
<path class="st22" d="M505.4,982.1c-3.5,0-3.5,5,0,5C508.9,987.1,508.9,982.1,505.4,982.1z"/>
</svg>
