<?xml version="1.0" encoding="utf-8"?>
<!-- Generator: Adobe Illustrator 23.0.2, SVG Export Plug-In . SVG Version: 6.00 Build 0)  -->
<svg version="1.1" id="Camada_1" xmlns="http://www.w3.org/2000/svg" xmlns:xlink="http://www.w3.org/1999/xlink" x="0px" y="0px"
	 viewBox="0 0 897.4 1004.7" style="enable-background:new 0 0 897.4 1004.7;" xml:space="preserve">
<style type="text/css">
	.st0{fill:#C06378;}
	.st1{opacity:0.7;enable-background:new    ;}
	.st2{fill:#FFFFFF;}
	.st3{fill:#FFC095;}
	.st4{fill:#D67820;}
	.st5{opacity:5.000000e-02;enable-background:new    ;}
	.st6{fill:#0E0D15;}
	.st7{fill:#252036;}
	.st8{opacity:3.000000e-02;enable-background:new    ;}
	.st9{opacity:0.1;enable-background:new    ;}
	.st10{fill:#8C5B79;}
	.st11{fill:#C6866B;}
	.st12{fill:#FDBE92;}
	.st13{fill:#D94B25;}
	.st14{fill:none;}
	.st15{fill:#F3F0DD;}
	.st16{opacity:0.1;}
	.st17{fill:#EB5E30;}
	.st18{fill:none;stroke:url(#SVGID_1_);stroke-linecap:round;stroke-miterlimit:10;}
	.st19{fill:none;stroke:url(#SVGID_2_);stroke-linecap:round;stroke-miterlimit:10;}
	.st20{opacity:0.1;fill:#FFFFFF;enable-background:new    ;}
	.st21{opacity:0.3;fill:#EDC8D2;enable-background:new    ;}
	.st22{opacity:0.5;fill:#F9BBCC;}
</style>
<title>women&amp;apos;s day</title>
<path class="st0" d="M835,385.4c124.7,69.4,0,172.9,0,172.9c-7.6,1.4-15.6,3.5-20.9,8.4c-7.2,6.7-7.7,16.6-7.9,25.7l-1.7,105.2
	c-0.1,8-0.3,16.4-4.5,23.6c-6.2,10.7-19.8,16.7-28.5,26c-14.9,15.9-13.3,38.8-8,58.7c5.3,19.9,13.7,40,10.1,60.2
	c-3,16.9,19.9,39.9-18.2,66.4c-38.1,26.5-564.7,41.6-608.3,4.8s-20.4-51.6-18.5-65.7c2.2-16.1,18.1-28.7,21.9-44.6
	c4.4-18.5-8.2-36.5-12.6-55c-5.9-24.7,3.2-50.1,12.2-74c3.4-9.2,7.1-18.7,14.4-26.1c8.9-9,22.8-14.3,29-24.9
	c8.6-14.6-1-32.8,5.2-48.3c6.7-16.8,29.1-24.4,49.2-29c34.7-8,70.1-13.8,105.8-17.2c10.7-1,21.9-1.9,30.8-7.1
	c7.2-4.1,12.1-10.5,16.5-16.9c20.2-29.8,37.3-67.4,76-76.1c26.3-5.9,54.3,4.3,81.2,0.9c49.2-6.3,69.6-49.2,119-74.3
	c49.4-25.1,122.8,11.2,130.6,0C815.4,368.1,835,385.4,835,385.4z"/>
<path class="st1" d="M835,385.4c124.7,71.4,0,172.9,0,172.9c-7.6,1.4-15.6,3.5-20.9,8.4c-7.2,6.7-7.7,16.6-7.9,25.7l-1.7,105.2
	c-0.1,8-0.3,16.4-4.5,23.6c-6.2,10.7-19.8,16.7-28.5,26c-14.9,15.9-13.3,38.8-8,58.7c5.3,19.9,13.7,40,10.1,60.2
	c-3,16.9,30.8,66.9-65.1,80c-95.9,13.1-519.2,24.1-561.4-8.8c-42.2-32.9-20.4-51.6-18.5-65.7c2.2-16.1,18.1-28.7,21.9-44.6
	c4.4-18.5-8.2-36.5-12.6-55c-5.9-24.7,3.2-50.1,12.2-74c3.4-9.2,7.1-18.7,14.4-26.1c8.9-9,22.8-14.3,29-24.9
	c8.6-14.6-1-32.8,5.2-48.3c6.7-16.8,29.1-24.4,49.2-29c34.7-8,70.1-13.8,105.8-17.2c10.7-1,21.9-1.9,30.8-7.1
	c7.2-4.1,12.1-10.5,16.5-16.9c20.2-29.8,37.3-67.4,76-76.1c26.3-5.9,54.3,4.3,81.2,0.9c49.2-6.3,75.2-47.9,119-74.3
	c43.8-26.4,122.8,11.2,130.6,0C815.4,368.1,835,385.4,835,385.4z"/>
<path class="st2" d="M668.4,414.7c-3.1,0-3.1,4.1,0,4.1S671.6,414.7,668.4,414.7z"/>
<path class="st2" d="M551.1,527.5c-3.1,0-3.1,4.1,0,4.1S554.2,527.5,551.1,527.5z"/>
<path class="st2" d="M107.7,720.4c-3.1,0-3.1,4.1,0,4.1S110.8,720.4,107.7,720.4z"/>
<path class="st2" d="M425.4,483.3c-3.1,0-3.1,4.1,0,4.1S428.5,483.3,425.4,483.3z"/>
<path class="st2" d="M767.2,524.2h-0.4c-0.9,0-1.6-0.6-1.6-1.4v-0.3h-0.9v0.3c0,0.8-0.7,1.4-1.6,1.4h-0.4v0.8h0.4
	c0.9,0,1.6,0.6,1.6,1.4v0.3h0.8v-0.3c0-0.8,0.7-1.4,1.6-1.4h0.4V524.2z"/>
<path class="st2" d="M666.4,448.1H666c-0.9,0-1.6-0.6-1.6-1.4v-0.3h-0.9v0.3c0,0.8-0.7,1.4-1.6,1.4h-0.4v0.8h0.4
	c0.9,0,1.6,0.6,1.6,1.4v0.3h0.9v-0.3c0-0.8,0.7-1.4,1.6-1.4h0.4V448.1z"/>
<path class="st2" d="M151.9,675.3h-0.4c-0.9,0-1.6-0.6-1.6-1.4v-0.3H149v0.3c0,0.8-0.7,1.4-1.6,1.4H147v0.8h0.4
	c0.9,0,1.6,0.6,1.6,1.4v0.3h0.9v-0.3c0-0.8,0.7-1.4,1.6-1.4h0.4V675.3z"/>
<path class="st2" d="M438.5,549.2h-0.4c-0.9,0-1.6-0.6-1.6-1.4v-0.3h-0.9v0.3c0,0.8-0.7,1.4-1.6,1.4h-0.4v0.8h0.4
	c0.9,0,1.6,0.6,1.6,1.4v0.3h0.9v-0.3c0-0.8,0.7-1.4,1.6-1.4h0.4V549.2z"/>
<path class="st2" d="M790.4,534.9l-0.3-0.2c-0.7-0.5-0.8-1.3-0.2-1.9l0.2-0.2l-0.7-0.5l-0.2,0.2c-0.6,0.6-1.6,0.7-2.3,0.2l-0.3-0.2
	l-0.6,0.6l0.3,0.2c0.7,0.5,0.8,1.3,0.2,1.9l-0.2,0.2l0.7,0.5l0.2-0.2c0.6-0.6,1.6-0.7,2.3-0.2l0.3,0.2L790.4,534.9z"/>
<path class="st2" d="M550.8,486l-0.3-0.2c-0.7-0.5-0.8-1.3-0.2-1.9l0.2-0.2l-0.7-0.5l-0.2,0.2c-0.6,0.6-1.6,0.7-2.3,0.2l-0.3-0.2
	l-0.6,0.6l0.3,0.2c0.7,0.5,0.8,1.3,0.2,1.9l-0.2,0.2l0.7,0.5l0.2-0.2c0.6-0.6,1.6-0.7,2.3-0.2l0.3,0.2L550.8,486z"/>
<path class="st2" d="M711.7,771.4l-0.3-0.2c-0.7-0.5-0.8-1.3-0.2-1.9l0.2-0.2l-0.7-0.5l-0.2,0.2c-0.6,0.6-1.6,0.7-2.3,0.2l-0.3-0.2
	l-0.6,0.6l0.3,0.2c0.7,0.5,0.8,1.3,0.2,1.9l-0.2,0.2l0.7,0.5l0.2-0.2c0.6-0.6,1.6-0.7,2.3-0.2l0.3,0.2L711.7,771.4z"/>
<polygon class="st2" points="718.5,415.9 717.1,414.7 718.5,413.6 717.8,413 716.4,414.2 715,413 714.4,413.6 715.8,414.7 
	714.4,415.9 715,416.4 716.4,415.3 717.8,416.4 "/>
<path class="st2" d="M768.6,422.6c-0.4,0-0.7,0.3-0.6,0.6c0,0.3,0.3,0.5,0.6,0.5c0.4,0,0.7-0.3,0.6-0.6
	C769.2,422.9,768.9,422.7,768.6,422.6z"/>
<path class="st2" d="M706.5,468c-0.4,0-0.7,0.3-0.6,0.6c0,0.3,0.3,0.5,0.6,0.5c0.4,0,0.7-0.3,0.6-0.6
	C707.1,468.2,706.8,468,706.5,468z"/>
<path class="st2" d="M625.7,457.5c-0.4,0-0.7,0.3-0.6,0.6c0,0.3,0.3,0.5,0.6,0.5c0.4,0,0.7-0.3,0.6-0.6
	C626.3,457.7,626,457.5,625.7,457.5z"/>
<path class="st2" d="M483.8,466.7h-1c-0.4,0-0.7,0.3-0.6,0.6c0,0.3,0.3,0.5,0.6,0.5h1c0.4,0,0.7-0.3,0.6-0.6
	C484.4,467,484.1,466.8,483.8,466.7z"/>
<path class="st2" d="M466.2,541.2c-0.4,0-0.7,0.3-0.6,0.6c0,0.3,0.3,0.5,0.6,0.5c0.4,0,0.7-0.3,0.6-0.6
	C466.8,541.4,466.5,541.2,466.2,541.2z"/>
<path class="st2" d="M610.1,568.2c-0.4,0-0.7,0.3-0.6,0.6c0,0.3,0.3,0.5,0.6,0.5c0.4,0,0.7-0.3,0.6-0.6
	C610.7,568.5,610.5,568.2,610.1,568.2z"/>
<path class="st2" d="M621.5,517.6c-0.4,0-0.7,0.3-0.6,0.6c0,0.3,0.3,0.5,0.6,0.5c0.4,0,0.7-0.3,0.6-0.6
	C622.1,517.9,621.9,517.7,621.5,517.6z"/>
<path class="st2" d="M717.9,528.1c-0.4,0-0.7,0.3-0.6,0.6c0,0.3,0.3,0.5,0.6,0.5c0.4,0,0.7-0.3,0.6-0.6
	C718.4,528.4,718.2,528.1,717.9,528.1z"/>
<path class="st2" d="M708.5,703.3c-0.4,0-0.7,0.3-0.6,0.6c0,0.3,0.3,0.5,0.6,0.5c0.4,0,0.7-0.3,0.6-0.6
	C709.1,703.6,708.9,703.4,708.5,703.3z"/>
<g>
	<path class="st3" d="M393.4,756.3c-0.3,1.8-0.3,3.6,0.1,5.4c1.3,4.8,7,6.9,12,7.7c7,1.2,14.5,1.3,20.8-1.9c2.5-1.3,4.8-2.9,7-4.7
		l8.9-6.8c1.5-1,2.8-2.3,3.7-3.8c0.6-1.3,0.9-2.7,1-4.1c1-15-10.4-27.9-25.4-28.9c-0.4,0-0.8,0-1.1,0c-1-0.1-2,0.1-2.9,0.4
		c-1,0.5-2,1.3-2.7,2.1c-4.8,4.7-11.1,5.5-14.2,11.7C396.9,740.6,394.5,748.3,393.4,756.3z"/>
	<path class="st4" d="M428.5,579.8c-5.7,3.3-10.2,8.2-14.2,13.3c-3,4-5.9,8.2-6.7,13.1c-1.3,7.1,1.5,15.6-3.3,20.9
		c-2.2,2.4-5.5,3.6-7.5,6.2c-1.5,1.8-2.1,4.1-2.7,6.4c-1.1,4.3-2.3,8.6-2,13c0.4,6,3.5,11.6,4.1,17.7c0.7,7.1-2,14.2-4.7,20.8
		l-5.4,13.2c4.9-1.7,10.3-1,15.4-0.7c18.3,1.1,37-3.4,54.7,1.3c2.1,0.6,4.2,1.2,6.3,1.7c11.3,2.5,22.9-1,33.9-4.5
		c1.6-0.5,3.5-1.5,3.2-3.1c-0.1-0.6-0.4-1.2-0.9-1.7c-8.3-10.7-15.1-23.7-13.3-37.2c1.6-11.7,9.5-22.6,7.4-34.2
		c-1.2-6.7-5.5-12.3-8.8-18.2c-2-3.7-3.6-7.6-6-11.1c-2.3-3.5-5.4-6.6-8.5-9.6c-3-3-6.2-6.2-9.9-8.4
		C451.3,573.6,436.9,575,428.5,579.8z"/>
	<path class="st3" d="M434.7,676c0,1.8-0.3,3.6-1.1,5.2c-1,1.9-2.9,3.1-4.7,4.2c-8.7,5.3-17.5,10.5-26.3,15.6
		c5.2,13.3,10.5,26.9,19.7,38c17.4,20.9,46.9,29.1,73.8,25.2c4-0.6,8.3-1.5,11.2-4.4c2.4-2.3,3.5-5.5,4.3-8.7
		c2.8-10.6,3.1-21.7,0.9-32.4c-1.6-7.6-4.7-15.4-11.3-19.5c-2.5-1.4-5.1-2.5-7.9-3.3l-22.3-7.3c-1.1-0.4-2.3-0.8-2.8-1.8
		c-0.3-0.8-0.4-1.7-0.2-2.5l1.7-18c0.4-3.8,0.6-8-1.6-11c-1.9-2.5-5.1-3.7-8.1-4.5c-4.6-1.3-19.9-5.9-23.5-1.5
		c-1.8,2.3-0.8,10.5-0.9,13.4L434.7,676z"/>
	<path class="st3" d="M497.7,695.9c8.6,2.1,18,5.4,22,13.3c2.4,4.7,2.4,10.2,2.3,15.5l-0.8,80.8l-21.8,0.9c2.6-14.2,4.2-28.6,4.7-43
		c0.4-6,0.2-12.1-0.5-18.1c-1.7-13.1-7.5-25.1-14.4-36.2c-1.6-2.5-10-11.9-8.7-14.9C482.2,690.7,494.4,695.1,497.7,695.9z"/>
	<path class="st5" d="M514.7,737.3c1.5,3,2.2,6.3,2.8,9.6c0.7,3.5,1.4,7,1.3,10.6c-0.2,2.5-0.6,4.9-1.2,7.3l-2.4,10.5
		c-1,4.2-2,8.6-4.6,12c-0.2,0.4-0.6,0.7-1,0.8c-0.4,0.1-0.8,0-1.1-0.1c-2.6-0.8-4.5-3.2-5.4-5.8c-0.9-2.6-0.9-5.4-0.9-8.1
		c0.1-11.6,1-23.3-0.1-34.9c-0.3-3.3-3.1-11.5,2.5-11.1C508.6,728.2,513.1,734.1,514.7,737.3z"/>
	<path class="st6" d="M516.3,882.1c0,0.4,0,0.8-0.1,1.1l0,0l0,0c0,1-0.1,1.9-0.1,2.9l0,0c-0.9,22.2-0.7,50.2-7.6,71.7H403.2
		c-0.3-1.1-0.6-2.1-0.9-3.2c-4.4-16.7-8.9-33.8-7.4-51c0.1-2.3,0.5-4.5,1-6.8l0,0c0-0.1,0.1-0.3,0.1-0.4c0.3-1.2,0.7-2.3,1.3-3.4
		c0.2-0.3,0.4-0.6,0.6-0.9c0.1-0.2,0.3-0.3,0.4-0.5c0.4-0.5,0.9-0.8,1.5-1.1c2.8-1.3,10.1,0.4,14.2,1.1c0.5,0.1,1,0.2,1.5,0.2
		l11.4,1l2.9,0.3l22.4,2l3,0.3c7,0.6,14.1,1.1,21.2,0.6C490.6,895.3,502,881.8,516.3,882.1L516.3,882.1z"/>
	<path class="st5" d="M402.8,789.8c0.7,2.2,0.6,4.5,0.8,6.7c0.6,7.2,4,14,5.2,21.2c1.8,11.3-2,22.6-5.5,33.5
		c-3.5,10.9-6.7,22-6.3,33.3c0.3,7.1,2.1,14.5,7,19.6c6.9,7.2,17.9,8.2,27.9,8.8l36,2.1c7,0.4,14.2,0.8,21.1-0.3
		c7-1.1,13.9-3.9,18.7-9c2.8-3.1,5-6.8,6.4-10.8c1.4-3.6,2.1-7.4,2.2-11.2c0-4.6-1.1-9-2-13.5c-4-19.4-4.2-39.3-4.3-59
		c-0.1-9.1-0.2-18.3,1.8-27.1c1-4.6,2.6-9.1,3.7-13.6c3.5-15.2,0.6-33-11.3-43.1c-1-0.9-2.4-1.7-3.6-1.2c-0.9,0.4-1.4,1.4-1.9,2.3
		c-4.5,8.6-12.5,14.7-22,16.8c-5,1.1-10.2,1-15.3,0.6c-6.7-0.5-13.4-1.5-19.5-4.2s-11.6-7.2-14.4-13.3c-6.8,5-6,15.4-9.8,23
		c-2.5,4.9-6.9,8.3-11.5,11.1c-3.6,2.1-11,3.4-13.4,6.9C387.6,776.6,400.8,783.7,402.8,789.8z"/>
	<path class="st7" d="M402.8,787.8c0.7,2.2,0.6,4.5,0.8,6.7c0.6,7.2,4,14,5.2,21.2c1.8,11.3-2,22.6-5.5,33.5
		c-3.5,10.9-6.7,22-6.3,33.3c0.3,7.1,2.1,14.5,7,19.6c7,7.2,18,8.2,27.9,8.8l36,2.1c7,0.4,14.2,0.8,21.1-0.3c7-1.1,13.9-3.9,18.7-9
		c2.8-3.1,5-6.8,6.4-10.8c1.4-3.6,2.1-7.4,2.2-11.2c0-4.6-1.1-9-2-13.5c-4-19.4-4.2-39.3-4.3-59c-0.1-9.1-0.2-18.3,1.8-27.1
		c1-4.6,2.6-9.1,3.7-13.6c3.5-15.2,0.6-33-11.3-43.1c-1-0.9-2.4-1.7-3.6-1.2c-0.9,0.4-1.4,1.4-1.9,2.3c-4.5,8.6-12.5,14.7-22,16.9
		c-5,1.1-10.2,1-15.3,0.6c-6.7-0.5-13.4-1.5-19.5-4.2c-6.1-2.7-11.6-7.2-14.4-13.3c-6.8,5-6,15.4-9.8,23c-2.5,4.9-6.9,8.3-11.5,11.1
		c-3.6,2.1-11,3.4-13.4,6.9C387.6,774.6,400.8,781.7,402.8,787.8z"/>
	<path class="st5" d="M491.5,807.6c0-2.1,1-4.1,2.1-5.9c1.4-2.5,3-5,4.6-7.4c1.2-1.9,2.8-3.6,4.6-4.9c1.9-1.2,4.5-1.6,6.5-0.5
		c0.4,0.3,0.9,0.6,1.5,0.6c0.8,0,1.3-0.8,2-1.1c1.3-0.6,2.7,0.3,3.6,1.4c0.9,1.1,1.6,2.4,2.9,3c0.5,0.2,1,0.3,1.4,0.5
		c1.6,0.7,2.5,2.5,3.2,4.1c0.6,1.1,0.9,2.3,1,3.5c0,2.1-1.6,3.9-3.1,5.4l-3.8,4c-1,1.1-2.1,2.1-3.4,2.8c-1.3,0.8-2.8,0.9-4.2,0.4
		c-0.3-0.2-0.7-0.3-1.1-0.3c-0.3,0.1-0.6,0.3-0.7,0.6c-0.8,1-1.6,2.1-2.4,3.2c-0.6,1.2-1.5,2.2-2.6,3c-1.2,0.6-2.9,0.4-3.5-0.8
		c-0.1-0.2-0.2-0.5-0.4-0.6c-0.5-0.4-1.1,0.2-1.7,0.5c-0.9,0.4-2-0.4-2.4-1.4c-0.2-1-0.2-2,0.2-3c-0.7-0.6-1.7-0.2-2.6-0.2
		c-1.9,0.1-1.5-1.1-1.4-2.2C491.9,810.7,491.6,809.2,491.5,807.6z"/>
	<path class="st5" d="M436.3,650.3c-1.3,1.6-1.2,6.4-1,10c0.4,0.4,0.9,0.8,1.3,1.2c6.9,5.7,15.5,9,24.5,9.2c1.8,0.1,3.6-0.1,5.3-0.8
		c1.2-0.6,2.3-1.5,3.2-2.5v-0.1c0.4-3.8,0.6-8-1.6-11c-1.9-2.5-5.1-3.7-8.1-4.5C455.2,650.5,439.9,645.9,436.3,650.3z"/>
	<path class="st8" d="M409.4,749.8c-0.4,3.7-2.1,7.2-3.7,10.6l-9.3,19.6c-1.5-2.5-3-5.3-2.7-8.2c0.3-1.4,0.7-2.8,1.4-4.1l8.2-17.3
		c0.6-1.3,2.7-8.6,4.1-8.7C409.5,741.6,409.5,748.5,409.4,749.8z"/>
	<path class="st5" d="M434.4,611.8c-4.8,7.7-5.7,17.5-3.4,26.3c1.7,6.6,5.1,13.4,2.8,19.9c-1.7,4.8-6.6,9.6-4.2,14.2
		c0.5,1,1.4,1.9,1.7,2.9c0.5,1.9-0.7,3.7-1.5,5.5c-4.4,9.1,0.9,19.6,3.4,29.5c1.9,7.3,2.3,14.8,2.7,22.3l-4.7-12.1
		c-2,10.2-6.2,19.8-12.4,28.1c3.5,0,6.9,0.6,10.3,1.6c-5.4-0.7-10.4,3.2-11,8.6c-0.6,4.8,2.4,9.3,7.1,10.7
		c-4.9,1.1-9.9-2.2-12.2-6.6c-2.3-4.4-2.5-9.6-2.2-14.6l-4,0.3c4-9.5,5.6-19.8,4.9-30c-0.3-4.5-1.8-9.9-6.2-11.2l-1.3,12l-5.3-10.7
		c-0.3-0.9-1-1.7-1.8-2.3c-0.6-0.2-1.3-0.4-2-0.5c-2.1-0.6-2.9-3.4-2.2-5.4c0.6-2.1,2.3-3.6,3.9-5.1c5.4-5,10.7-10.4,13.6-17.1
		c2.7-6.3,3.1-13.3,3.4-20.1c0.3-8,0.6-16,0.8-24c0.1-6.3,0.2-12.7,1.6-18.9c2.4-10.4,8.7-20.1,18-25.5c9.3-5.3,21.5-5.8,30.6-0.3
		c5.5,3.3,9.6,8.5,13.6,13.5l11.5,14.5c2.4,3,4.8,6.1,5.9,9.7c2,6.7-0.8,13.9-4.2,20.1s-7.6,12.2-8.4,19.2c-1,8.1,2.6,15.9,6.1,23.2
		c4.5,9.3,9,18.7,15.7,26.6c3.4,4,7.5,7.9,8.5,13c-1.5,1.2-3.4,1.6-5.3,1.2c2.7,10.8,4.9,21.8,6.5,32.8
		c-9.7-6.4-19.2-13.2-28.3-20.5c-0.8,3.7-3.4,6.7-6.9,8c-0.3-3.1,0.8-6.1,0.9-9.2c0.2-3.1-1-6.7-4-7.6c-1.7-0.5-3.7-0.1-5.2-1.1
		c-1.1-0.8-1.5-2.1-1.8-3.4l-6.6-24.2c-4-0.2-8,0.8-11.5,2.8c5-2.8,8.6-7.4,10.3-12.8l-13.7-0.2c3.6-3.4,7.1-7,10.5-10.6
		c4.9-5.3,9.7-10.9,13.3-17.2c10.1-17.7,10.2-40.6,0.4-58.4c-1.6-2.9-3.6-5.8-6.3-7.8C456,594,439.8,603.1,434.4,611.8z"/>
	<path class="st5" d="M409,867.8l8.6,11.5c3.4,4.6,6.9,9.3,11.3,13.2c9.1,8,21.3,11.7,31.1,19c6.1,4.6,11.1,10.4,14.6,17.2
		c1.7,3.3,2.7,8.1-0.3,10.3c-2.7,1.9-6.4,0.2-9.2-1.5l-15.3-9.3c-4.5-2.7-9-5.5-12.4-9.4c-2.7-3.1-4.5-6.8-6.8-10.2
		c-3.4-5.2-7.7-9.9-12.6-13.7c-3-2.4-6.3-4.5-8.8-7.3c-4.1-4.6-5.8-10.8-7-16.8c-0.4-2-3.4-14.7-1.1-14.8
		C402.3,855.7,407.8,866.2,409,867.8z"/>
	<path class="st9" d="M402.4,788c0,0,34.1,16.3,72.6,2h5.4c0,0,16.3,8.9,28.7-1.5l0.9,30.4l-101.2-3.2L402.4,788z"/>
	<path class="st10" d="M591.9,569.8c-1-0.6-2.2-1.1-3.3-0.9c-2.7,0.6-3.5,5.1-6.3,5c-1.3-0.1-2.3-1.3-3.5-1.9s-3.2,0.2-2.8,1.4
		c-2.3,2.1-5.7-3.8-8.3-2.1c-0.6,0.4-0.9,1.1-1.5,1.4c-1,0.7-2.3,0.3-3.4-0.1c-1.1-0.5-2.2-1-3.4-0.8c-1.1,0.2-1.9,1.9-0.9,2.6
		l-8.8,0c-0.5,1.2-0.4,2.6,0.2,3.8l-6.4,0.2c0,1.2,0.3,2.3,0.9,3.3c-3.6-0.5-7.2,0.4-10,2.7l2.7,2.1c-2.8,0.1-5.5,0.8-8,1.9l1.4,2.4
		c-3.2,0-5.9,2.4-6.3,5.6l2.5,0.9c-3,0.8-5.5,2.9-6.8,5.7l1.9,0.9c-1.4,3.2-4,5.8-7.3,7.1c3,0.8,5.1,3.5,5.2,6.6
		c-2.1-1.3-5,0.5-5.7,2.9c-0.6,2.4,0.3,4.9,1.4,7.1c0.8-1.6,1-3.4,0.5-5.1c2.3,1.2,3.2,4.1,1.9,6.4c-0.1,0.3-0.3,0.5-0.5,0.8
		c-0.6,0.5-1.1,1.1-1.6,1.7c-0.8,1.6,0.6,3.3,1.8,4.5c-2,1-4.1,2.1-4.9,4.2c-0.6,1.6-0.2,3.3,0.1,4.9c0.3,1.6,0.6,3.4,0,4.9
		s-2.7,2.5-4,1.6c-0.3,1.9,1,3.7,3,4c1.2,0.2,2.4-0.3,3.2-1.2c0.8-1,2.2-2.6,2.9-1.6c-3.2,2.4-3.1,8.1,0.2,10.3
		c-1.1-0.6-2.4,0.4-2.9,1.5c-1,1.8-1.1,4.2,0.3,5.8s4.2,1.6,5.2-0.1c-1.1,2.3,2.1,4.5,4.6,4s4.5-2.4,6.9-3s5.8,1,5.2,3.5
		c-1-0.5-2.1-0.7-3.2-0.6c-1.1,0.1-2,1-2,2.2c1.8,1.5,3.8,3.2,6.2,3.1c2.4,0,4.6-2.8,3.3-4.7c0.7-1.2,2.7-0.3,3.1,1.1
		c0.4,1.3,0.1,2.8,0.7,4.1c0.9,1.6,2.9,2.2,4.5,1.3c0.3-0.2,0.6-0.4,0.9-0.7c0.6,0.7,1.8,0.5,2.7,0.2c5.4-1.8,11.5-4.3,13-9.8
		c0.5-1.7,0.5-3.6,1.6-5c0.8-1,1.9-1.6,3.2-1.9c5.4-1.7,11.3,0.2,16.5,2.5c5.2,2.3,10.3,5.3,15.9,5.9c3.7,0.4,7.6-0.2,11,1.2
		c0.9,0.5,1.8,0.8,2.7,0.9c1,0,2-0.7,1.9-1.7c-0.1-0.6-0.6-1.1-0.8-1.6c-0.6-1.3-0.1-2.9,1.2-3.5c0,0,0.1,0,0.1,0
		c-0.2,1.6,0.5,3.2,1.7,4.2c1.3,0.9,3.1,0.8,4.3-0.4c1-1.2,0.5-3.4-1-3.9c2.9-1.7,4-5.4,2.4-8.3c3.8-2.2,4.7-8.2,1.7-11.4
		c3.5-1.8,5.4-5.7,4.5-9.5c1.6-0.6,3.2-1.3,4.2-2.6s1.2-3.5-0.1-4.6c1.6-4.2,2.5-8.6,2.7-13.1c0-1.3-0.4-3-1.7-3
		c1.1-1.8,2.2-4.2,1-6c-0.5-0.7-1.2-1.2-1.6-1.9c-0.9-1.8,0.6-4,0.1-5.9c-0.5-1.7-2.5-2.5-4-3.4c-2.3-1.4-4-3.6-6.1-5.2
		c-2.2-1.6-5.2-2.6-7.4-1.2c-0.6-4.5-3.1-8.5-7-10.9c-4-2.4-5.3-5.9-10.7-6.5c-1.7-0.2-3.9,0.4-5.5-0.1
		C595.4,572.9,593.7,570.8,591.9,569.8z"/>
	<path class="st5" d="M583.8,621.9c-1.7,1.7-0.3,5-1.9,6.8c-0.8,0.9-2.1,1.1-2.8,2.1c-0.8,1.3,0,3.1-0.5,4.5c-0.7,1.7-3,2.3-3.9,4
		c-1,2.1,0.6,5.3-1.4,6.5c-0.7,0.4-1.8,0.4-2.3,1.1c-0.5,0.7,0,1.7,0,2.5c0,1.6-1.7,2.6-2.8,3.7s-1.2,3.7,0.4,3.8
		c-0.8,1.3-2.1,2.4-3.5,3c1.5,0.9,1.1,3.2,0.1,4.6c-1.1,1.4-2.7,2.2-3.4,3.8c-0.4,0.8-0.5,1.7-0.9,2.5c-1.2,2.8-5.1,3.6-7.8,2.3
		s-4.4-4.1-5.3-7c-1.9-6.4-0.2-13.4-1.8-19.8c-0.9-3.7-2.9-7.3-2.7-11.2c0.1-3.1,1.6-5.9,3.1-8.6c3.7-6.7,7.8-13.1,12.3-19.3
		c4.3-5.9,9.5-12,16.6-13.5c4.2-0.9,8.6-0.1,12.8,1c12.2,3.2,24.1,9,32.9,18.1c2.7,2.7,4.9,5.8,6.3,9.4c1.3,3.6,1.5,7.7-0.1,11.1
		c-0.9,2-2.5,4-1.9,6.1c0.3,0.6,0.5,1.3,0.7,2c0.6,3.2-4.7,4.7-4.7,7.9c0,0.9,0.4,1.7,0.3,2.6c-0.2,1.8-2.4,2.5-3.4,4
		c-1.4,2.1-0.2,5.6-2.2,7.2c-1,0.8-2.6,0.9-2.9,2.1c-0.2,0.8,0.2,1.6,0.2,2.4c-0.1,1.4-1.6,2.3-2.4,3.4c-0.8,1.1-0.2,3.5,1.1,2.9
		l-3.6,2.6l1,2c-0.8,1.7-3.3,1.8-4.6,0.5c-1.3-1.3-1.5-3.4-0.9-5.1c0.7-1.7,1.7-3.3,2.9-4.6c2.3-2.9,4.4-6,6.3-9.2
		c1.6-2.6,3.1-5.6,2.6-8.6c-0.3-2.5-1.9-4.9-1.1-7.3l2.6-0.9l-4.5-5.2l2.2-0.5c-0.7-0.6-1.3-1.5-1.6-2.4c-0.3-1,0.3-1.9,1.2-2.2
		c1.3-3.9-6.3-7.1-4.3-10.8h-2c0-2-0.8-3.9-2.2-5.3c-1.6-1.5-3.6-2.3-5.8-2.4c-2.6-0.2-9.5,0.3-11.6,2c-1.3,1-0.7,2.2-1.5,3.3
		C586.5,620.7,584.9,620.8,583.8,621.9z"/>
	<path class="st11" d="M624.7,728.1c-0.4,2.8-1.4,5.5-2.8,8c-1.7,2.4-4,4.3-6.6,5.7c-1.7,1-3.6,1.8-5.4,2.6l-13,5.6
		c-4,2.2-8.7,2.9-13.2,1.9l-24.1-3.4c-2.9-0.4-5.8-0.8-8.7-1.4c-1.8-0.3-3.7-0.7-5.4-1.2c-3.8-0.9-7.4-2.3-10.9-4.2
		c-7.5-4.3-10.5-12.8-9.7-21.5c0.7-8.2,4.1-14.3,10.1-20l1.7-1.6l0.2-0.1l4-3.8l5.9-5.5c2.7-2.4,5.1-5,7.3-7.8
		c4.8-6.6,6.5-17,13-22.3c5.5-4.5,17.9,2,23,5.4c0.8,0.5,1.5,1.2,2,2c0.4,0.9,0.5,2,0.3,3c-0.6,6.2-2.3,12.3-5.2,17.8
		c-0.6,1.1-1.2,2.3-1,3.5c0.1,0.4,0.2,0.8,0.4,1.1c0.7,0.9,1.6,1.6,2.6,2.1c1.4,0.7,2.9,1.4,4.3,2c5.3,2.1,11,3.5,16.3,5.7
		c6.8,2.9,13.4,7.8,15.2,14.9C626,720.4,625.5,724.4,624.7,728.1z"/>
	<path class="st7" d="M593.5,696c1,3.7,6.1,21.2,9.2,22.1c1.2,0.3,6.3,10.4,12.5,23.7c12.4,26.4,29.5,65.2,29.5,65.2l-72.3-1.7
		l-31.4-0.8l4.5-58.5l0.9-11.6l8.2-2.8l3.2-1.1l-0.5-18.3c0,0-7-17.9-20.5-13.5l4-3.8c6.6-0.1,13.9,4.2,20.9,17.3
		c0,0,40.5,54.4,36.6,4c0,0-6.9-21.7-13.8-25.2l2.1,1.1L593.5,696z"/>
	<path class="st5" d="M588.9,681.3c1-3.2,1.6-6.5,1.9-9.8c0.2-1,0.1-2-0.3-3c-0.5-0.8-1.2-1.5-2-2c-5-3.4-17.5-9.9-23-5.4
		c-0.6,0.5-1.1,1-1.6,1.6C569.6,671.8,578.5,678.5,588.9,681.3z"/>
	<path class="st11" d="M560.8,649.6c3.4,15.3,17,27.5,32.4,30.4c3.4,0.7,7.6,0.6,9.6-2.2c1.3-1.8,1.4-4.3,2.4-6.3
		c0.8-1.8,2.4-3.2,3.7-4.6c1.8-2,3.3-4.2,4.7-6.6c4.5-7.8,7.4-16.8,6.6-25.7c-0.5-4-1.3-7.9-2.5-11.8c-1.3-4.6-2.8-9.6-6.6-12.4
		c-8.5-6.2-22.6-4.1-31.4-0.1c-9.2,4.2-15.8,13-18.3,22.7C559.8,638.4,559.7,644.1,560.8,649.6z"/>
	<path class="st10" d="M583.8,620.9c-1.7,1.7-0.3,5-1.9,6.8c-0.8,0.9-2.1,1.1-2.8,2.1c-0.8,1.3,0,3.1-0.5,4.5c-0.7,1.7-3,2.3-3.9,4
		c-1,2.1,0.6,5.3-1.4,6.5c-0.7,0.4-1.8,0.4-2.3,1.1c-0.5,0.7,0,1.7,0,2.5c0,1.6-1.7,2.6-2.8,3.7s-1.2,3.7,0.4,3.8
		c-0.8,1.3-2.1,2.4-3.5,3c1.5,0.9,1.1,3.2,0.1,4.6c-1.1,1.4-2.6,2.3-3.4,3.9c-0.4,0.8-0.5,1.7-0.9,2.5c-1.2,2.8-5.1,3.6-7.8,2.3
		c-2.7-1.3-4.4-4.1-5.3-7c-1.9-6.4-0.2-13.4-1.8-19.8c-0.9-3.7-2.9-7.3-2.7-11.2c0.1-3.1,1.6-5.9,3.1-8.6
		c3.7-6.7,7.8-13.1,12.3-19.3c4.3-5.9,9.5-12,16.6-13.5c4.2-0.9,8.6-0.1,12.8,1c12.2,3.2,24.1,9,32.9,18.1c2.7,2.7,4.9,5.8,6.3,9.4
		c1.3,3.6,1.5,7.7-0.1,11.1c-0.9,2-2.5,4-1.9,6.1c0.3,0.6,0.5,1.3,0.7,2c0.6,3.2-4.7,4.7-4.7,7.9c0,0.9,0.4,1.7,0.3,2.6
		c-0.2,1.8-2.4,2.5-3.4,4c-1.4,2.1-0.2,5.6-2.2,7.2c-1,0.8-2.6,0.9-2.9,2.1c-0.2,0.8,0.2,1.6,0.2,2.4c-0.1,1.4-1.6,2.3-2.4,3.4
		c-0.8,1.1-0.2,3.5,1.1,2.9l-3.6,2.6l1,2c-0.8,1.7-3.3,1.8-4.6,0.5c-1.3-1.3-1.5-3.4-0.9-5.1c0.7-1.7,1.7-3.3,2.9-4.6
		c2.3-2.9,4.4-6,6.3-9.2c1.6-2.6,3.1-5.6,2.6-8.6c-0.3-2.5-1.9-4.9-1.1-7.3l2.6-0.9l-4.5-5.2l2.2-0.5c-0.7-0.6-1.3-1.5-1.6-2.4
		c-0.3-1,0.3-1.9,1.2-2.2c1.3-3.9-6.3-7.1-4.3-10.8h-2c0-2-0.8-3.9-2.2-5.3c-1.6-1.5-3.6-2.3-5.8-2.4c-2.6-0.2-9.5,0.3-11.6,2
		c-1.3,1-0.7,2.2-1.5,3.3C586.5,619.7,584.9,619.8,583.8,620.9z"/>
	<path class="st6" d="M785.2,914.5c-0.9,4.7-3.9,9.6-6.4,13.7c-0.4,0.6-0.7,1.2-1.1,1.8l-0.6,0.9c-4.2,6.9-7.8,14.2-10.7,21.8
		c-0.7,1.8-1.3,3.5-1.9,5.3h-31.9c-2.2-3.3-3.2-7-4-10.7c-1.3-6.1-2-12.3-2-18.5c-0.1-4,0.1-8,0.6-12c0-0.4,0.1-0.7,0.1-1.1
		c0.6-4.6,2.1-9.5,6.7-12.3c0.4-0.2,0.8-0.4,1.1-0.6c0.1-0.1,0.2-0.1,0.3-0.2c2.1-0.9,4.3-1.6,6.6-2c3.3-0.7,6.6-1.3,9.9-1.8
		l1.1-0.1c1.9-0.2,3.7-0.4,5.6-0.6c1.1-0.1,2.1-0.2,3.2-0.2c5.7-0.3,11.9-0.2,16.4,2.5c3.7,2.2,5.7,4.7,6.6,7.4
		c0,0.1,0.1,0.3,0.1,0.4C785.6,910.2,785.6,912.4,785.2,914.5z"/>
	<path class="st6" d="M833.1,914.3c-3.1,2.6-5.4,5.9-6.8,9.7c-0.2,0.4-0.3,0.8-0.4,1.2c-1.8,5.2-2.3,11-2.6,16.4
		c-0.3,5.4-0.6,11-1,16.4h-55.6c-0.1-1.8-0.2-3.5-0.3-5.3c-0.2-4.5-0.2-9.1,0.1-13.6c0.1-3,0.5-6.1,1.3-9c0.1-0.3,0.2-0.6,0.3-0.9
		s0.3-0.8,0.5-1.3c2.5-5.9,8-10.2,14-12.4c0.9-0.3,1.8-0.6,2.7-0.9c5.2-1.5,10.7-1.9,16.2-2.1C810.2,912.1,825.3,910.3,833.1,914.3z
		"/>
	<path class="st12" d="M768.2,694.8c0.1,2.3-0.2,4.5-0.8,6.7c-1.3,3.7-4.6,6.3-8.2,7.7s-7.6,1.6-11.5,1.6c-5-0.1-10.7-0.3-14.2,3.2
		c-2.3,2.3-3.1,5.6-3.7,8.8c-2.5,11.4-4.9,23.6-0.3,34.3c2.9,6.8,8.4,12.3,14.7,16s13.6,5.8,20.8,7.1c2.9,0.5,5.8,0.8,8.8,0.8
		c10-0.1,19.4-4.7,28.3-9.2c2-0.9,3.8-2.1,5.4-3.6c1.4-1.7,2.5-3.7,3.2-5.8c4.8-12.2,9.2-24.6,13-37.2c1-3.3,2-6.8,2-10.3
		c-0.1-3.5-1.4-7.1-4.1-9.2c-4.2-3.2-10.2-1.9-15.5-1.3c-1.3,0.4-2.7-0.3-3.1-1.6c-0.1-0.2-0.1-0.5-0.1-0.8
		c-1.5-5.7-1.7-11.7-0.5-17.5c0.7-3.6,1.9-7.6,0.2-10.8c-2.3-4.5-8.5-5-13.5-4.9l-8.7,0.2c-1.3-0.1-2.6,0.2-3.7,0.7
		c-1.9,1.2-3.3,3.2-5.3,4.4c-1.7,1-2.8,0.9-3.5,2.9c-0.7,2,0.3,6,0.4,8.1C768.2,688.5,768.2,691.7,768.2,694.8z"/>
	<path class="st5" d="M743.9,750.6c1.2,1.7,2.6,3.3,4.3,4.6c3.4,2.4,8.1,2.6,12.1,1.3c4-1.2,7.6-3.6,11.1-6l28.5-19.4
		c4-2.7,7.9-5.4,12.4-6.9c1.1-0.5,2.4-0.6,3.6-0.3c1.2,0.5,2.1,1.4,2.8,2.4c3.8,4.9,7.6,9.9,9.5,15.8c1.8,5.4,1.8,11.3,1.7,17
		c-0.1,7.8-0.2,15.6-0.4,23.5c-0.1,4.4-0.2,8.9-1.5,13.1c-1.8,6-5.8,11.2-6.9,17.3c-1.1,6.4,1.1,12.8,3.2,18.9
		c8.3,25.2,13.5,51.2,15.7,77.7c0.2,2.5,0.3,5.1-0.9,7.2c-1,1.7-2.7,2.8-4.4,3.8c-21.7,12.8-48.6,11.8-73.5,8.5
		c-5.1-0.7-10.5-1.5-14.4-4.8c-2.8-2.4-4.5-5.7-6.1-8.9c-7.6-15.7-13.3-32.7-12.7-50.1c0.4-5.7,1-11.4,2-17
		c1.6-10.1,3-20.3,4.1-30.5c0.9-7.4,1.6-15.1-0.8-22.2c-2.4-7.3-8.1-13.3-10.3-20.8c-3.3-11,1.3-22.8,5.7-32.8
		c1.4-3.2,8.7-30,10.1-30.3C742.9,711.1,740.7,746.4,743.9,750.6z"/>
	<path class="st7" d="M743.9,749.7c1.2,1.7,2.6,3.3,4.3,4.6c3.4,2.4,8.1,2.6,12.1,1.3c4-1.2,7.6-3.6,11.1-6l28.5-19.4
		c4-2.7,7.9-5.4,12.4-6.9c1.1-0.5,2.4-0.6,3.6-0.3c1.2,0.5,2.1,1.4,2.8,2.4c3.8,4.9,7.6,9.9,9.5,15.8c1.8,5.4,1.8,11.3,1.7,17
		c-0.1,7.8-0.2,15.6-0.4,23.5c-0.1,4.4-0.2,8.9-1.5,13.1c-1.8,6-5.8,11.2-6.9,17.3c-1.1,6.4,1.1,12.8,3.2,18.9
		c8.3,25.2,13.5,51.2,15.7,77.7c0.2,2.5,0.3,5.1-0.9,7.2c-1,1.7-2.7,2.8-4.4,3.8c-21.7,12.8-48.6,11.8-73.5,8.5
		c-5.1-0.7-10.5-1.5-14.4-4.8c-2.8-2.4-4.5-5.7-6.1-8.9c-7.6-15.7-13.3-32.7-12.7-50.1c0.4-5.7,1-11.4,2-17
		c1.6-10.1,3-20.3,4.1-30.5c0.9-7.4,1.6-15.1-0.8-22.2c-2.5-7.3-8.2-13.3-10.4-20.8c-3.3-11,1.3-22.8,5.7-32.8
		c1.4-3.2,8.7-30,10.1-30.3C742.9,710.2,740.7,745.4,743.9,749.7z"/>
	<path class="st5" d="M846.5,708.3c-0.4,4.3-1.3,8.6-3.7,12.2c-3.5,5.1-9.7,7.5-15.5,9.7l-18.5,6.9c-3.5,1.4-7.2,2.6-10.9,3.4
		c-1.8,0.3-3.6,0.6-5.4,0.6c-7,0.2-14-1.2-20.5-4c-8.1-3.4-15.4-8.5-22.4-14c-4.3-3.3-8.5-6.8-12-10.9c-2.7-3.2-5.1-7.1-4.9-11.3
		c0.2-2,0.7-4,1.4-5.9c2.7-8.1,4.6-16.4,5.8-24.8c1.3-8.9,1.7-18,1.3-27c-0.2-3.3-0.5-6.6,0-9.9c1.6-11.8,5.6-19.9,15-27.2
		c2-1.5,10.2-3.5,12.6-4.2l0.5-0.1c4.3-0.9,12.9,2.1,16.9,3.5c15.8,5.3,26.6,20,26.9,36.7c0.1,2.9,0,6.3,1.7,8.5
		c0.2,0.3,0.5,0.6,0.7,0.8c1,0.8,2.2,1.3,3.2,2c2.8,2.1,3.3,6.2,2.8,9.6c-0.5,3.5-1.6,6.9-1.2,10.4c0.1,0.8,0.3,1.5,0.5,2.3
		c1,3,3,5.6,5,8.2l7.9,10.3c1.4,1.9,3.1,3.8,5.3,4.5l0.2,0.1c1.4,0.4,2.8,0.2,4.1,0.8C846.5,700.7,846.9,704.9,846.5,708.3z"/>
	<path class="st13" d="M649.7,599.4c-10.2,6.8-13.1,20.2-17.3,31.6c-1.6,4.4-3.6,8.8-4.5,13.4c-1.2,5.8-0.7,11.8-0.8,17.7
		c-0.7,25.2-12.5,48.8-32.2,64.6l58.4,17.4c3.7,1.2,7.5,2.1,11.3,2.9c5.5,1,11.2,1,16.8,1.1l35.7,0.3c2.7,0,5.9-0.2,7.4-2.4
		c0.7-1.1,1-2.4,0.9-3.8c-0.1-7.2-5.6-13.1-8.3-19.8c-4.3-10.8,5.6-20.7,5.2-32.3c-0.2-5.4-0.4-13.4,0-18.8
		c0.8-12.5,0.9-23.9-0.5-36.3c-1.6-14-13.9-23.9-25.3-32.2C684.1,593.9,663.2,590.4,649.7,599.4z"/>
	<path class="st3" d="M662.8,657l-0.2,40.8c-6.6,0.3-13.2,1.3-19.7,3c-11.2,2.8-18.4,13.6-16.7,25l7.7,52.6l83.5,4.9v-50.9l0,0
		c-2.5-11.9-13.9-19.7-25.9-17.8l-3.3,0.5l7.4-42.5L662.8,657z"/>
	<path class="st7" d="M644.3,696.8c0,0,16.8,34.1,18.3,41c1.5,6.9-30.6,31.1-35.1,28.7c-4.5-2.5-4,58.3-4,58.3l86-8.4l2-12.4
		c0,0,22.2-9.4,2-47l-5.9-2.5c0,0-4.9,19.8-42-17.8l-17.8-41.5L644.3,696.8z"/>
	<path class="st5" d="M710.7,803.3c0,0-16.8,1.5-18.3-2l-3-0.5c0,0-4.9,10.9-51.4-0.5l-14.6-0.5l-3.2,7.4l90.6,3L710.7,803.3z"/>
	<path class="st14" d="M740.6,739.5"/>
	<path class="st5" d="M663.6,684.5c1,0.7,2.1,1.3,3.2,1.7c2.8,1.1,5.9,1.2,8.9,1.3c5.4,0.1,11.3,0.2,15.7-3.1c2-1.5,3.5-3.5,4.6-5.8
		l0.6-3.6l-32.9-15.5L663.6,684.5z"/>
	<path class="st3" d="M643.2,635c-2,16.5,4,33,16.2,44.4c1.9,1.8,4,3.3,6.4,4.3c2.8,1.1,5.9,1.2,8.9,1.3c5.4,0.1,11.3,0.2,15.7-3.1
		c5.2-3.8,6.5-10.9,7.5-17.2l3-19.9c0.9-5.8,1.7-12-0.9-17.2c-4.5-8.9-21.9-17.2-31.7-16.2C655.5,612.8,644.9,622.4,643.2,635z"/>
	<path class="st5" d="M655.9,628.8c-2.8,5.9-4.7,12.5-3.7,19c0.9,5.5,3.9,10.4,6.9,15.1c6.8,10.6,14.3,21.5,15.7,34
		c0.5,4.5,0.1,9.2-1.8,13.2c-2,4.1-5.7,7.4-10.2,8.1c-1.2,0.3-2.5,0.1-3.6-0.4c-1.4-0.8-2.2-2.3-2.9-3.7c-3.4-6.8-19.7-8.8-27.1-7.3
		c-1,0.2,7.9-4.7,6.9-4.9c-3.1-0.5-3.6-4.6-3.4-7.7l4.3-59.7c0.2-3.4,0.5-6.8,1.6-10c4-11.6,17.6-16.8,29.8-17.2
		c3.8-0.2,7.6,0.2,11.3,1c8.5,2,16,7.4,21.7,14c4,4.5,7.3,9.8,8.6,15.7c1.5,6.7,0.3,13.8-0.8,20.6c-5.3,32.1-8.2,65.6,1.7,96.5
		c-9.4,1.9-19.6-4.7-21.7-14c-0.8-3.7-0.5-7.6-0.2-11.4c1.3-14.5,2.5-29,4.7-43.4c1.7-11,4-21.9,4.1-33c0.1-9-1.4-18.7-7.6-25.4
		C680.3,617.3,663,613.8,655.9,628.8z"/>
	<path class="st13" d="M655.9,627.9c-2.8,5.9-4.7,12.5-3.7,19c0.9,5.5,3.9,10.4,6.9,15.1c6.8,10.6,14.3,21.5,15.7,34
		c0.5,4.5,0.1,9.2-1.8,13.2s-5.7,7.4-10.2,8.1c-1.2,0.3-2.5,0.1-3.6-0.4c-1.4-0.8-2.2-2.3-2.9-3.7c-3.4-6.8-19.7-8.8-27.1-7.3
		c-1,0.2,7.9-4.7,6.9-4.9c-3.1-0.5-3.6-4.6-3.4-7.7l4.3-59.7c0.2-3.4,0.5-6.8,1.6-10c4-11.6,17.6-16.8,29.8-17.2
		c3.8-0.2,7.6,0.2,11.3,1c8.5,2,16,7.4,21.7,14c4,4.5,7.3,9.8,8.6,15.7c1.5,6.7,0.3,13.8-0.8,20.6c-5.3,32.1-8.2,65.6,1.7,96.5
		c-9.4,1.9-19.6-4.7-21.7-14c-0.8-3.7-0.5-7.6-0.2-11.4c1.3-14.5,2.5-29,4.7-43.4c1.7-11,4-21.9,4.1-33c0.1-9-1.4-18.7-7.6-25.4
		C680.3,616.3,663,612.9,655.9,627.9z"/>
	<rect x="455.2" y="810" class="st15" width="303.4" height="148"/>
	<path class="st3" d="M385.5,708.6c-2.6,1.3-5.2,2.7-7.2,4.7s-3.3,5-4.4,7.8c-2.6,6.9-4.2,14.1-5.8,21.3
		c-5.7,25.7-11.4,51.5-12.6,77.8c-0.3,6.5-0.3,13.1,1.3,19.3c1.8,6.9,5.4,13.1,9.2,19c12.4,19.3,27.4,36.8,44.4,52
		c1.1,0.8,2,1.8,2.7,3c0.5,1.1,1,2.2,1.3,3.4c3.2,9,12,14.6,20.2,19.5c3.3,2,6.7,4,10.5,4.6c2,0.3,4,0.3,5.8,1
		c2.9,1.1,4.7,4,7.5,5.4s7.3-0.3,6.6-3.2c2.6,2,6.7-2.2,4.7-4.7c2,1.3,4.8-0.9,5.1-3.3c0.3-2.4-1.1-4.7-2.4-6.7
		c-4.5-7-9.1-14.1-15.8-19c-7.2-5.2-16.1-7.4-23.5-12.2c-7.2-4.7-12.4-11.8-17.5-18.7c-10.3-14.2-20.3-28.7-29.9-43.4
		c-1.3-1.9-2.6-4-3-6.2c-0.4-2.3,0-4.7,0.5-7c4.7-21.9,11.4-43.4,19.9-64.1c2.2-5.6,4.8-11,7.9-16.2c4.3-6.9,9.8-12.9,13.9-19.9
		s6.7-15.4,4.5-23.2c-2.2-7.6-11.9-15.6-18.9-9.8c-4,3.2-6.7,7.6-11,10.7C395.2,703.5,390.5,706.2,385.5,708.6z"/>
	<path class="st0" d="M634.8,854.8c-1.8-4.3-4.4-8.2-7.7-11.5c-1.5-1.5-3.2-2.9-5-4.2l-0.2-0.1l0,0c-9.7-6.6-22-8.1-33-4
		c-0.2,0.1-0.5,0.2-0.7,0.3c-0.2,0.1-0.5,0.2-0.7,0.3c-18.4,7.7-27,28.9-19.2,47.3c5.4,12.9,17.8,21.4,31.7,22v18h-19.5v3H600v19.5
		h3v-19.5h19.4v-3H603v-18c19.9-0.9,35.4-17.7,34.5-37.6C637.4,863,636.4,858.8,634.8,854.8z M601.5,901.9c-18.3,0-33-14.8-33-33.1
		c0-14.2,9.1-26.8,22.6-31.3l0.6-0.2c3.2-1,6.5-1.5,9.8-1.5c5.4,0,10.7,1.3,15.5,3.9l0.2,0.1c16.1,8.6,22.1,28.7,13.5,44.8
		C624.9,895.2,613.7,901.9,601.5,901.9L601.5,901.9z"/>
	<path class="st3" d="M425.4,615.5c-2.9,7.5-1.3,15.8,0.3,23.7c0.9,4.5,1.9,9.1,4.1,13.1c1.8,3.1,4.1,5.9,6.9,8.2
		c6.9,5.7,15.5,9,24.5,9.2c1.8,0.1,3.6-0.1,5.3-0.8c2.1-1,3.6-2.9,4.9-4.7c3.4-4.7,6.9-9.5,9.3-14.8c4.2-9.6,4.7-20.3,5-30.8
		c0.2-1.5,0-3.1-0.5-4.6c-0.4-0.9-0.9-1.7-1.5-2.4c-6.3-8.3-18.4-21.5-29.9-17.7C443.1,597.5,429.6,604.4,425.4,615.5z"/>
	<path class="st5" d="M456,942.7c-1.8-0.7-3.9-0.7-5.8-1c-3.8-0.6-7.2-2.6-10.5-4.6c-8.2-4.9-17-10.5-20.2-19.5
		c-0.3-1.2-0.8-2.3-1.3-3.4c-0.7-1.1-1.7-2.1-2.7-3c-17.1-15.3-32-32.8-44.4-52c-3.8-6-7.5-12.2-9.2-19c-1.6-6.3-1.6-12.9-1.3-19.3
		c1.2-26.3,6.9-52.1,12.6-77.8c1.6-7.2,3.2-14.4,5.8-21.3c1.1-2.8,2.3-5.7,4.4-7.8s4.6-3.4,7.2-4.7c4.9-2.4,9.7-5.2,14.2-8.3
		c4.3-3.1,7.1-7.5,11-10.7c0.9-0.7,1.9-1.3,2.9-1.6c-2.7-0.9-5.7-0.3-7.9,1.6c-4,3.2-6.7,7.6-11,10.7c-4.5,3.1-9.3,5.9-14.2,8.3
		c-2.6,1.3-5.2,2.7-7.2,4.7s-3.3,5-4.4,7.8c-2.6,6.9-4.2,14.1-5.8,21.3c-5.6,25.7-11.3,51.5-12.6,77.8c-0.3,6.5-0.3,13.1,1.3,19.3
		c1.8,6.9,5.4,13.1,9.2,19c12.4,19.3,27.4,36.8,44.4,52c1.1,0.8,2,1.8,2.7,3c0.5,1.1,1,2.2,1.3,3.4c3.2,9,12,14.6,20.2,19.5
		c3.3,2,6.7,4,10.5,4.6c2,0.3,4,0.3,5.8,1c2.9,1.1,4.7,4,7.5,5.4c1.5,0.7,3.3,0.7,4.8-0.1C460.7,946.5,458.8,943.8,456,942.7z"/>
	<path class="st4" d="M434.4,610.8c-4.8,7.7-5.7,17.5-3.4,26.3c1.7,6.6,5.1,13.4,2.8,19.9c-1.7,4.8-6.6,9.6-4.2,14.2
		c0.5,1,1.4,1.9,1.7,2.9c0.5,1.9-0.7,3.7-1.5,5.5c-4.4,9.1,0.9,19.6,3.4,29.5c1.9,7.3,2.3,14.8,2.7,22.3l-4.7-12.1
		c-2,10.2-6.2,19.8-12.4,28.1c3.5,0,6.9,0.6,10.3,1.6c-5.4-0.7-10.4,3.2-11,8.6c-0.6,4.8,2.4,9.3,7.1,10.7
		c-4.9,1.1-9.9-2.2-12.2-6.6c-2.3-4.4-2.5-9.6-2.2-14.6l-4,0.3c4-9.5,5.6-19.8,4.9-30c-0.3-4.5-1.8-9.9-6.2-11.2l-1.3,12l-5.3-10.7
		c-0.3-0.9-1-1.7-1.8-2.3c-0.6-0.2-1.3-0.4-2-0.5c-2.1-0.6-2.9-3.4-2.2-5.4c0.6-2.1,2.3-3.6,3.9-5.1c5.4-5,10.7-10.4,13.6-17.1
		c2.7-6.3,3.1-13.3,3.4-20.1c0.3-8,0.6-16,0.8-24c0.1-6.3,0.2-12.7,1.6-18.9c2.4-10.4,8.7-20.1,18-25.5c9.3-5.3,21.5-5.8,30.6-0.3
		c5.5,3.3,9.6,8.5,13.6,13.5l11.5,14.5c2.4,3,4.8,6.1,5.9,9.7c2,6.7-0.8,13.9-4.2,20.1s-7.6,12.2-8.4,19.2c-1,8.1,2.6,15.9,6.1,23.2
		c4.5,9.3,9,18.7,15.7,26.6c3.4,4,7.5,7.9,8.5,13c-1.5,1.2-3.4,1.6-5.3,1.2c2.7,10.8,4.9,21.8,6.5,32.8
		c-9.7-6.4-19.2-13.2-28.3-20.5c-0.8,3.7-3.4,6.7-6.9,8c-0.3-3.1,0.8-6.1,0.9-9.2c0.2-3.1-1-6.7-4-7.6c-1.7-0.5-3.7-0.1-5.2-1.1
		c-1.1-0.8-1.5-2.1-1.8-3.4l-6.6-24.2c-4-0.2-8,0.8-11.5,2.8c5-2.8,8.6-7.4,10.3-12.8l-13.7-0.2c3.6-3.4,7.1-7,10.5-10.6
		c4.9-5.3,9.7-10.9,13.3-17.2c10.1-17.7,10.2-40.6,0.4-58.4c-1.6-2.9-3.6-5.8-6.3-7.8C456,593,439.8,602.1,434.4,610.8z"/>
	<path class="st5" d="M493,806.1c0-2.1,1-4.1,2.1-5.9c1.4-2.5,3-5,4.6-7.4c1.2-1.9,2.8-3.6,4.6-4.9c1.9-1.2,4.5-1.6,6.5-0.5
		c0.4,0.3,0.9,0.6,1.5,0.6c0.8,0,1.3-0.8,2-1.1c1.3-0.6,2.7,0.3,3.6,1.4c0.9,1.1,1.6,2.4,2.9,3c0.5,0.2,1,0.3,1.4,0.5
		c1.6,0.7,2.5,2.5,3.2,4.1c0.6,1.1,0.9,2.3,1,3.5c0,2.1-1.6,3.9-3.1,5.4l-3.8,4c-1,1.1-2.1,2.1-3.4,2.8c-1.3,0.8-2.8,0.9-4.2,0.4
		c-0.3-0.2-0.7-0.3-1.1-0.3c-0.3,0.1-0.6,0.3-0.7,0.6c-0.8,1-1.6,2.1-2.4,3.2c-0.6,1.2-1.5,2.2-2.6,3c-1.2,0.6-2.9,0.4-3.5-0.8
		c-0.1-0.2-0.2-0.5-0.4-0.6c-0.5-0.4-1.1,0.2-1.7,0.5c-0.9,0.4-2-0.4-2.4-1.4c-0.2-1-0.2-2,0.2-3c-0.7-0.6-1.7-0.2-2.6-0.2
		c-1.9,0.1-1.5-1.1-1.4-2.2C493.4,809.2,493,807.7,493,806.1z"/>
	<path class="st3" d="M492.5,807.1c0-2.1,1-4.1,2.1-5.9c1.4-2.5,3-5,4.6-7.4c1.2-1.9,2.8-3.6,4.6-4.9c1.9-1.2,4.5-1.6,6.5-0.5
		c0.4,0.3,0.9,0.6,1.5,0.6c0.8,0,1.3-0.8,2-1.1c1.3-0.6,2.7,0.3,3.6,1.4c0.9,1.1,1.6,2.4,2.9,3c0.5,0.2,1,0.3,1.4,0.5
		c1.6,0.7,2.5,2.5,3.2,4.1c0.6,1.1,0.9,2.3,1,3.5c0,2.1-1.6,3.9-3.1,5.4l-3.8,4c-1,1.1-2.1,2.1-3.4,2.8c-1.3,0.8-2.8,0.9-4.2,0.4
		c-0.3-0.2-0.7-0.3-1.1-0.3c-0.3,0.1-0.6,0.3-0.7,0.6c-0.8,1-1.6,2.1-2.4,3.2c-0.6,1.2-1.5,2.2-2.6,3c-1.2,0.6-2.9,0.4-3.5-0.8
		c-0.1-0.2-0.2-0.5-0.4-0.6c-0.5-0.4-1.1,0.2-1.7,0.5c-0.9,0.4-2-0.4-2.4-1.4c-0.2-1-0.2-2,0.2-3c-0.7-0.6-1.7-0.2-2.6-0.2
		c-1.9,0.1-1.5-1.1-1.4-2.2C492.9,810.2,492.5,808.7,492.5,807.1z"/>
	<path class="st5" d="M625.2,767.2l-47.9,37.1L544.2,830c-20.3,18.8-26.7-7.9-26.7-7.9l4.9-77.6c-0.2-19.9,3.1-31.5,7.3-38.2
		c3.5-5.5,7.7-7.7,11.2-8.5l0.6-0.1c2.2-0.4,4.4-0.3,6.6,0.3c14.2,5.6,13.7,21.4,11.4,32.5c-0.8,3.9-2,7.8-3.5,11.5
		c0,1.4,0,2.8-0.2,4.2c-1,12.6-5.8,46.3-5.8,46.3l57.3-39L625.2,767.2z"/>
	<path class="st11" d="M623.8,767.2l-47.9,37.1L542.7,830c-20.3,18.8-26.7-7.9-26.7-7.9l4.9-77.6c-0.2-19.9,3.1-31.5,7.3-38.2
		c3.5-5.5,7.7-7.7,11.2-8.5l0.6-0.1c2.2-0.4,4.4-0.3,6.6,0.3c14.2,5.6,13.7,21.4,11.4,32.5c-0.8,3.9-2,7.8-3.5,11.5
		c0,1.4,0,2.8-0.2,4.2c-1,12.6-5.8,46.3-5.8,46.3l57.3-39L623.8,767.2z"/>
	<path class="st5" d="M609.2,740.8c0,0-25.7,59.8-21.7,88c0,0-5.9,17.3,41.5,9.4l67.2-14.8l18.3,4.5l4,4.9v13.8c0,0,5.4,4,6.9,0
		c1.5-4,0-14.3,0-14.3l3.5,5.9l1.5,11.9c0,0,4,3,5.4,0l-2-17.3c0,0,7.9,16.3,11.4,14.8c3.5-1.5-4.5-20.3-4.5-20.3l0,0
		c3.1,0,6,1.7,7.6,4.4c1.6,2.7,3.6,5.5,5.3,4.5c3-2,0-7.4,0-7.4l-6.9-9.9l0,0c-9.6-7.4-21.4-11.5-33.5-11.6l-88.6-1.2
		c0,0,12.4-29.2,13.3-43.5c0,0,0.5-8.9,11.4-14.8C660.1,741.7,622,688.9,609.2,740.8z"/>
	<path class="st3" d="M645.7,709.2c0,0-24.7-20.3-37.6,31.6c0,0-25.7,59.8-21.7,88c0,0-5.9,17.3,41.5,9.4l67.2-14.8l18.3,4.5l4,4.9
		v13.8c0,0,5.4,4,6.9,0c1.5-4,0-14.3,0-14.3l3.5,5.9l1.5,11.9c0,0,4,3,5.4,0l-2-17.3c0,0,7.9,16.3,11.4,14.8
		c3.5-1.5-4.4-20.2-4.4-20.2l0,0c3.1,0,6,1.7,7.6,4.4c1.6,2.7,3.6,5.5,5.3,4.5c3-2,0-7.4,0-7.4l-6.9-9.9l0,0
		c-9.6-7.4-21.4-11.5-33.5-11.6l-88.6-1.2c0,0,12.4-29.2,13.3-43.5c0,0,0.5-8.9,11.4-14.8C659.1,741.8,645.7,709.2,645.7,709.2z"/>
	<path class="st5" d="M811.3,713.6c0,0,35.1-25.7,36.6,22.7l2,100.3L793.5,897c0,0-3.5,11.4-13.8,12.4l-11.4,13.8
		c0,0-5.4,0.5-4.5-1.5s7.9-15.3,7.9-15.3l-14.8,19.8c0,0-4.5-1.5-3-3c0,0-4.9,5.4-5.9,0.5s0-4,0-4s-6.4,4.9-4.9-2
		s14.3-29.2,15.8-29.2c1.5,0,18.8-1.5,18.8-1.5l47.4-57.8c0,0-15.8-67.2-20.3-90.9C800.4,714.6,811.3,713.6,811.3,713.6z"/>
	<path class="st12" d="M812.3,713.6c0,0,35.1-25.7,36.6,22.7l2,100.3L794.5,897c0,0-3.5,11.4-13.8,12.4l-11.4,13.8
		c0,0-5.4,0.5-4.5-1.5s7.9-15.3,7.9-15.3l-14.8,19.8c0,0-4.5-1.5-3-3c0,0-4.9,5.4-5.9,0.5s0-4,0-4s-6.4,4.9-4.9-2
		s14.3-29.2,15.8-29.2c1.5,0,18.8-1.5,18.8-1.5l47.4-57.8c0,0-15.8-67.2-20.3-90.9C801.4,714.6,812.3,713.6,812.3,713.6z"/>
	<path class="st15" d="M846.5,706.8c-0.4,4.3-1.3,8.6-3.7,12.2c-3.5,5.1-9.7,7.5-15.5,9.7l-18.5,6.9c-3.5,1.4-7.2,2.6-10.9,3.4
		c-1.8,0.3-3.6,0.6-5.4,0.6c-7,0.2-14-1.2-20.5-4c-8.1-3.4-15.4-8.5-22.4-14c-4.3-3.3-8.5-6.8-12-10.9c-2.7-3.2-5.1-7.1-4.9-11.3
		c0.2-2,0.7-4,1.4-5.9c2.7-8.1,4.6-16.4,5.8-24.8c1.3-8.9,1.7-18,1.3-27c-0.2-3.3-0.5-6.6,0-9.9c1.6-11.8,5.6-19.9,15-27.2
		c2-1.5,10.2-3.5,12.6-4.2l0.5-0.1c4.3-0.9,12.9,2.1,16.9,3.5c15.8,5.3,26.6,20,26.9,36.7c0.1,2.9,0,6.3,1.7,8.5
		c0.2,0.3,0.5,0.6,0.7,0.8c1,0.8,2.2,1.3,3.2,2c2.8,2.1,3.3,6.2,2.8,9.6c-0.5,3.5-1.6,6.9-1.2,10.4c0.1,0.8,0.3,1.5,0.5,2.3
		c1,3,3,5.6,5,8.2l7.9,10.3c1.4,1.9,3.1,3.8,5.3,4.5l0.2,0.1c1.4,0.4,2.8,0.2,4.1,0.8C846.5,699.2,846.9,703.4,846.5,706.8z"/>
	<path class="st5" d="M749.8,636.9c-3.4,6.6-4.5,14.2-4.7,21.6c-0.1,3.8,0.1,7.7,1.3,11.3c1.1,2.9,2.5,5.6,4.2,8.2l7.5,12.3
		c1,1.7,2.1,3.4,3.9,4.3s4.1,0.7,6.1,0.5c4.9-0.6,9.9-1.4,14.3-3.6c5.7-2.9,9.9-8,13.9-12.9c2.6-2.5,3.9-6.1,3.3-9.6l-0.9-19.6
		c0-2-0.3-4-0.9-5.9c-1.7-4.6-6.6-7.1-10.7-9.8c-6.1-4-12.9-10.4-20.8-9.9C759.2,624,752.9,630.8,749.8,636.9z"/>
	<path class="st12" d="M749.8,635.9c-3.4,6.6-4.5,14.2-4.7,21.6c-0.1,3.8,0.1,7.7,1.3,11.3c1.1,2.9,2.5,5.6,4.2,8.2l7.5,12.3
		c1,1.7,2.1,3.4,3.9,4.3s4.1,0.7,6.1,0.5c4.9-0.6,9.9-1.4,14.3-3.6c5.7-2.9,9.9-8,13.9-12.9c2.6-2.5,3.9-6.1,3.3-9.6l-0.9-19.6
		c0-2-0.3-4-0.9-5.9c-1.7-4.6-6.6-7.1-10.7-9.8c-6.1-4-12.9-10.4-20.8-9.9C759.2,623,752.9,629.8,749.8,635.9z"/>
	<g class="st16">
		<path class="st2" d="M734.1,701.4c2.7-8.1,4.6-16.4,5.8-24.8c1.1-7.9,1.6-15.8,1.4-23.8c-0.1,5.5-0.6,11-1.4,16.4
			c-1.2,8.4-3.2,16.7-5.8,24.8c-0.7,1.9-1.2,3.9-1.4,5.9c0,1.4,0.2,2.8,0.6,4.1C733.5,703.1,733.8,702.2,734.1,701.4z"/>
		<path class="st2" d="M820.6,674c-0.4,1.9-0.5,3.9-0.3,5.8c0.1,0.8,0.3,1.5,0.5,2.3c1,3,3,5.6,5,8.2l7.9,10.3
			c1.4,1.9,3.1,3.8,5.3,4.5l0.2,0.1c1.4,0.4,2.8,0.2,4.1,0.8c1.5,0.7,2.6,2.1,2.9,3.7c0.1-0.7,0.2-1.5,0.3-2.2
			c0.3-3.4,0-7.6-3.2-8.9c-1.3-0.5-2.8-0.4-4.1-0.8l-0.2-0.1c-2.2-0.7-3.8-2.7-5.3-4.5l-7.9-10.3c-2-2.5-4-5.2-5-8.2
			C820.8,674.4,820.7,674.2,820.6,674z"/>
		<path class="st2" d="M741.1,639.7c1.6-11.8,5.6-19.9,15-27.2c2-1.5,10.2-3.5,12.6-4.2l0.5-0.1c4.3-0.9,12.9,2.1,16.9,3.5
			c15.8,5.3,26.6,20,26.9,36.7c0.1,2.9,0,6.3,1.7,8.5c0.2,0.3,0.5,0.6,0.7,0.8c1,0.8,2.2,1.3,3.2,2c1.3,1,2.1,2.4,2.5,4
			c0.1-0.6,0.2-1.1,0.3-1.7c0.5-3.5,0-7.5-2.8-9.6c-1-0.8-2.2-1.2-3.2-2c-0.3-0.2-0.5-0.5-0.7-0.8c-1.7-2.2-1.6-5.5-1.7-8.5
			c-0.3-16.7-11.1-31.3-26.9-36.7c-4-1.4-12.5-4.3-16.9-3.5l-0.5,0.1c-2.4,0.7-10.6,2.6-12.6,4.2c-9.4,7.3-13.5,15.4-15,27.2
			c-0.3,2.7-0.3,5.4-0.1,8.1C741.1,640.2,741.1,639.9,741.1,639.7z"/>
	</g>
	<path class="st17" d="M485.6,829.1c-3-2.9-7.8-2.9-10.7,0.1c-2.9,3-2.9,7.8,0.1,10.7l0,0l10.8,10.6l10.6-10.8
		c2.9-3,2.9-7.8-0.1-10.7C493.3,826,488.5,826.1,485.6,829.1L485.6,829.1z"/>
	<path class="st17" d="M717.4,916.5c-3-2.9-7.8-2.9-10.7,0.1c-2.9,3-2.9,7.8,0.1,10.7l10.8,10.6l10.6-10.8c2.9-3,2.9-7.8-0.1-10.7
		S720.3,913.5,717.4,916.5L717.4,916.5z"/>
	<path class="st2" d="M396.3,612.4c-0.4,0-0.6,0.4-0.6,0.7c0,0.3,0.3,0.6,0.6,0.6c0.4,0,0.6-0.4,0.6-0.7
		C396.8,612.6,396.6,612.4,396.3,612.4z"/>
</g>
<path class="st2" d="M130.6,707.7c-0.4,0-0.7,0.3-0.6,0.6c0,0.3,0.3,0.5,0.6,0.5c0.4,0,0.7-0.3,0.6-0.6
	C131.2,707.9,130.9,707.7,130.6,707.7z"/>
<path class="st2" d="M300.5,666.7c-0.4,0-0.7,0.3-0.6,0.6c0,0.3,0.3,0.5,0.6,0.5c0.4,0,0.7-0.3,0.6-0.6
	C301,667,300.8,666.7,300.5,666.7z"/>
<path class="st2" d="M685.8,731.2c-0.4,0-0.7,0.3-0.6,0.6c0,0.3,0.3,0.5,0.6,0.5c0.4,0,0.7-0.3,0.6-0.6
	C686.3,731.5,686.1,731.2,685.8,731.2z"/>
<path class="st2" d="M663,795.7c-0.4,0-0.7,0.3-0.6,0.6c0,0.3,0.3,0.5,0.6,0.5c0.4,0,0.7-0.3,0.6-0.6
	C663.6,796,663.3,795.8,663,795.7z"/>
<path class="st2" d="M502.4,565.6c-0.4,0-0.7,0.3-0.6,0.6c0,0.3,0.3,0.5,0.6,0.5c0.4,0,0.7-0.3,0.6-0.6
	C503,565.8,502.7,565.6,502.4,565.6z"/>
<path class="st2" d="M404,542.1c-0.4,0-0.7,0.3-0.6,0.6c0,0.3,0.3,0.5,0.6,0.5c0.4,0,0.7-0.3,0.6-0.6
	C404.6,542.3,404.4,542.1,404,542.1z"/>
<path class="st2" d="M291.1,565.6c-0.4,0-0.7,0.3-0.6,0.6c0,0.3,0.3,0.5,0.6,0.5c0.4,0,0.7-0.3,0.6-0.6
	C291.7,565.8,291.5,565.6,291.1,565.6z"/>
<path class="st2" d="M767.6,468.8h-1c-1,0-1.7,0.6-1.7,1.5s0.8,1.5,1.7,1.5h1c1,0,1.7-0.6,1.7-1.5S768.5,468.8,767.6,468.8z"/>
<path class="st2" d="M668.1,516.8c-2.2,0-2.2,2.9,0,2.9C670.4,519.7,670.4,516.8,668.1,516.8z"/>
<path class="st2" d="M589.5,565.6c-2.2,0-2.2,2.9,0,2.9C591.7,568.5,591.7,565.6,589.5,565.6z"/>
<path class="st2" d="M669.2,675.4c-2.2,0-2.2,2.9,0,2.9S671.4,675.4,669.2,675.4z"/>
<path class="st2" d="M750,655.4c-2.2,0-2.2,2.9,0,2.9S752.2,655.4,750,655.4z"/>
<path class="st2" d="M681.6,847.2h-1c-1,0-1.7,0.7-1.7,1.5c0,0.8,0.8,1.4,1.7,1.4h1c1,0,1.7-0.6,1.7-1.4
	C683.3,847.8,682.6,847.2,681.6,847.2C681.6,847.2,681.6,847.2,681.6,847.2z"/>
<path class="st2" d="M137.8,857.6c-2.2,0-2.2,2.9,0,2.9C140.1,860.5,140.1,857.6,137.8,857.6z"/>
<linearGradient id="SVGID_1_" gradientUnits="userSpaceOnUse" x1="639.6343" y1="653.6745" x2="696.9095" y2="653.6745" gradientTransform="matrix(1 0 0 -1 0 1227.4929)">
	<stop  offset="0" style="stop-color:#FFFFFF"/>
	<stop  offset="0.77" style="stop-color:#FFFFFF;stop-opacity:0.15"/>
</linearGradient>
<line class="st18" x1="640.1" y1="597.5" x2="696.4" y2="550.1"/>
<linearGradient id="SVGID_2_" gradientUnits="userSpaceOnUse" x1="569.8891" y1="768.7483" x2="627.1642" y2="768.7483" gradientTransform="matrix(1 0 0 -1 0 1227.4929)">
	<stop  offset="0" style="stop-color:#FFFFFF"/>
	<stop  offset="0.77" style="stop-color:#FFFFFF;stop-opacity:0.15"/>
</linearGradient>
<line class="st19" x1="570.4" y1="482.4" x2="626.7" y2="435.1"/>
<path class="st20" d="M273.2,815.1h-17.2c3.6-0.8,6.1-2.8,6.1-5.1c0-2.3-2.5-4.3-6.1-5.1h7.5c5.3,0,9.7-2.5,9.7-5.5
	c0-3-4.3-5.5-9.7-5.5h-60.8c-5.3,0-9.7,2.5-9.7,5.5c0,2.3,2.5,4.3,6.1,5.1h-7.5c-5.3,0-9.7,2.5-9.7,5.5c0,3,4.3,5.5,9.7,5.5h17.2
	c-3.6,0.8-6.1,2.8-6.1,5.1c0,3,4.3,5.5,9.7,5.5h60.8c5.3,0,9.7-2.5,9.7-5.5C282.9,817.6,278.6,815.1,273.2,815.1z"/>
<path class="st20" d="M545.8,512.2h-22.7c4.7-0.8,8.1-2.8,8.1-5.1c0-2.3-3.4-4.3-8.1-5.1h9.9c7,0,12.8-2.5,12.8-5.5
	c0-3-5.8-5.5-12.8-5.5h-80.5c-7,0-12.8,2.5-12.8,5.5c0,2.3,3.4,4.3,8.1,5.1h-9.9c-7,0-12.8,2.5-12.8,5.5c0,3,5.8,5.5,12.8,5.5h22.7
	c-4.7,0.8-8.1,2.8-8.1,5.1c0,3,5.8,5.5,12.8,5.5h80.5c7,0,12.8-2.5,12.8-5.5S552.9,512.2,545.8,512.2z"/>
<path class="st21" d="M257,324h-22.7c4.7-0.8,8.1-2.8,8.1-5.1s-3.4-4.3-8.1-5.1h9.9c7,0,12.8-2.5,12.8-5.5c0-3-5.8-5.5-12.8-5.5
	h-80.5c-7,0-12.8,2.5-12.8,5.5c0,2.3,3.4,4.3,8.1,5.1H149c-7,0-12.8,2.5-12.8,5.5c0,3,5.8,5.5,12.8,5.5h22.7
	c-4.7,0.8-8.1,2.8-8.1,5.1c0,3,5.8,5.5,12.8,5.5H257c7,0,12.8-2.5,12.8-5.5C269.8,326.4,264,324,257,324z"/>
<path class="st21" d="M834,238.7h-15.9c3.3-0.8,5.7-2.8,5.7-5.1c0-2.3-2.4-4.3-5.7-5.1h6.9c4.9,0,9-2.5,9-5.5s-4-5.5-9-5.5h-56.3
	c-4.9,0-9,2.5-9,5.5c0,2.3,2.4,4.3,5.7,5.1h-6.9c-4.9,0-9,2.5-9,5.5s4,5.5,9,5.5h15.9c-3.3,0.8-5.7,2.8-5.7,5.1c0,3,4,5.5,9,5.5H834
	c4.9,0,9-2.5,9-5.5S839,238.7,834,238.7z"/>
<path class="st21" d="M363.2,50.5h-15.1c3.1-0.8,5.4-2.8,5.4-5.1s-2.2-4.3-5.4-5.1h6.6c4.7,0,8.5-2.5,8.5-5.5s-3.8-5.5-8.5-5.5
	h-53.5c-4.7,0-8.5,2.5-8.5,5.5c0,2.3,2.2,4.3,5.4,5.1h-6.6c-4.7,0-8.5,2.5-8.5,5.5s3.8,5.5,8.5,5.5h15.1c-3.1,0.8-5.4,2.8-5.4,5.1
	c0,3,3.8,5.5,8.5,5.5h53.5c4.7,0,8.5-2.5,8.5-5.5S367.9,50.5,363.2,50.5z"/>
<path class="st22" d="M232.5,147.5c-3.1,0-3.1,4.1,0,4.1S235.6,147.5,232.5,147.5z"/>
<path class="st22" d="M721.9,280.4c-3.1,0-3.1,4.1,0,4.1S725,280.4,721.9,280.4z"/>
<path class="st22" d="M76.6,59.3c-3.1,0-3.1,4.1,0,4.1C79.7,63.4,79.7,59.3,76.6,59.3z"/>
<path class="st22" d="M74.3,500.3c-3.1,0-3.1,4.1,0,4.1S77.4,500.3,74.3,500.3z"/>
<path class="st22" d="M169.4,985.7c-3.1,0-3.1,4.1,0,4.1S172.5,985.7,169.4,985.7z"/>
<path class="st22" d="M685.1,95.8c-7,0-7,7.6,0,7.6C692.1,103.4,692.1,95.8,685.1,95.8z"/>
<path class="st22" d="M84.2,202.3c-7,0-7,7.6,0,7.6S91.2,202.3,84.2,202.3z"/>
<path class="st22" d="M850.8,621.4c-7,0-7,7.6,0,7.6C857.8,628.9,857.8,621.4,850.8,621.4z"/>
<path class="st22" d="M610.8,982.1c-3.5,0-3.5,5,0,5C614.3,987.1,614.3,982.1,610.8,982.1z"/>
</svg>
