<svg width="31" height="31" viewBox="0 0 31 31" fill="none" xmlns="http://www.w3.org/2000/svg">
<path fill-rule="evenodd" clip-rule="evenodd" d="M2.58325 7.58338C2.58325 4.82196 4.82183 2.58337 7.58325 2.58337H23.4166C26.178 2.58337 28.4166 4.82195 28.4166 7.58337V23.4167C28.4166 26.1781 26.178 28.4167 23.4166 28.4167H7.58326C4.82183 28.4167 2.58325 26.1781 2.58325 23.4167V7.58338Z" stroke="white" stroke-width="2" stroke-linecap="round" stroke-linejoin="round"/>
<path fill-rule="evenodd" clip-rule="evenodd" d="M20.6667 14.6863C20.9937 16.8911 19.8698 19.0571 17.8788 20.0592C15.8879 21.0613 13.4787 20.6736 11.9026 19.0975C10.3265 17.5214 9.93881 15.1122 10.9409 13.1212C11.943 11.1303 14.109 10.0064 16.3138 10.3333C18.5652 10.6672 20.3329 12.4349 20.6667 14.6863Z" stroke="white" stroke-width="2" stroke-linecap="round" stroke-linejoin="round"/>
</svg>
