<?xml version="1.0" encoding="utf-8"?>
<!-- Generator: Adobe Illustrator 23.0.2, SVG Export Plug-In . SVG Version: 6.00 Build 0)  -->
<svg version="1.1" id="Camada_1" xmlns="http://www.w3.org/2000/svg" xmlns:xlink="http://www.w3.org/1999/xlink" x="0px" y="0px"
	 viewBox="0 0 1280 758.4" style="enable-background:new 0 0 1280 758.4;" xml:space="preserve">
<style type="text/css">
	.st0{fill:#321E25;}
</style>
<path class="st0" d="M-65.5,395.6c-285.9-759.3,1150.3,114,1382.9-458.2c185.2-455.7,31.8,160.7-38.3,430.7
	C1261.4,436,1191,483.7,1109.6,484l-831.2,2.1C168.2,486.4,86.9,572.6,100.9,666C119.5,790.3,109.6,860.4-65.5,395.6z"/>
<path class="st0" d="M-32.7,692.5c-285.9-759.3,1150.3,114,1382.9-458.2C1535.4-221.4,1382,395,1311.9,665
	c-17.7,67.9-88.1,115.7-169.4,115.9L311.2,783c-110.1,0.3-191.5,86.5-177.5,179.9C152.3,1087.2,142.3,1157.3-32.7,692.5z"/>
<path class="st0" d="M1.8,897.4c-285.9-759.3,1150.3,114,1382.9-458.2c185.2-455.7,31.8,160.7-38.3,430.7
	c-17.7,67.9-88.1,115.7-169.4,115.9l-831.2,2.1c-110.1,0.3-191.5,86.5-177.5,179.9C186.8,1292.1,176.8,1362.2,1.8,897.4z"/>
</svg>
