<svg width="31" height="31" viewBox="0 0 31 31" fill="none" xmlns="http://www.w3.org/2000/svg">
<path fill-rule="evenodd" clip-rule="evenodd" d="M15.4999 28.4167C22.6336 28.4167 28.4166 22.6337 28.4166 15.5C28.4166 8.36636 22.6336 2.58337 15.4999 2.58337C8.36624 2.58337 2.58325 8.36636 2.58325 15.5C2.58325 22.6337 8.36624 28.4167 15.4999 28.4167Z" stroke="white" stroke-width="2" stroke-linecap="round" stroke-linejoin="round"/>
<path fill-rule="evenodd" clip-rule="evenodd" d="M15.4999 20.6667C18.3534 20.6667 20.6666 18.3535 20.6666 15.5C20.6666 12.6466 18.3534 10.3334 15.4999 10.3334C12.6464 10.3334 10.3333 12.6466 10.3333 15.5C10.3333 18.3535 12.6464 20.6667 15.4999 20.6667Z" stroke="white" stroke-width="2" stroke-linecap="round" stroke-linejoin="round"/>
<path d="M27.3446 10.3334H15.5" stroke="white" stroke-width="2" stroke-linecap="round" stroke-linejoin="round"/>
<path d="M5.10205 7.82751L11.0308 18.0833" stroke="white" stroke-width="2" stroke-linecap="round" stroke-linejoin="round"/>
<path d="M14.0532 28.3392L19.9691 18.0834" stroke="white" stroke-width="2" stroke-linecap="round" stroke-linejoin="round"/>
</svg>

